<svg width="263" height="44" viewBox="0 0 263 44" fill="none" xmlns="http://www.w3.org/2000/svg">
<path d="M5.99736 29.9992V31.0371C5.70653 30.6361 5.3371 30.3295 4.88907 30.1172C4.43317 29.9128 3.9144 29.8105 3.3406 29.8105C2.31877 29.8105 1.50917 30.1172 0.903934 30.7226C0.298696 31.3358 0 32.2714 0 33.5294V36.2654C0 37.5234 0.298696 38.459 0.903934 39.0722C1.50917 39.6933 2.31877 40 3.3406 40C3.9144 40 4.43317 39.8978 4.88907 39.6855C5.3371 39.4811 5.70653 39.1744 5.99736 38.7735V39.8113H9.16504V29.9992H5.99736ZM5.99736 36.2025C5.99736 36.8236 5.88733 37.2796 5.65938 37.5863C5.43143 37.885 5.07771 38.0344 4.58252 38.0344C4.08732 38.0344 3.7179 37.8929 3.49781 37.6099C3.27773 37.3268 3.16767 36.8787 3.16767 36.2654V33.5844C3.16767 32.9633 3.28558 32.5073 3.50567 32.2164C3.73362 31.9176 4.09518 31.7682 4.58252 31.7682C5.06985 31.7682 5.43143 31.9176 5.65938 32.2164C5.88733 32.5073 5.99736 32.9633 5.99736 33.5844V36.2025Z" fill="#050505"/>
<path d="M11.0361 26.6028V39.8113H14.2274V26.6028H11.0361Z" fill="#050505"/>
<path d="M21.8037 29.9992V36.6035C21.8037 36.9416 21.7565 37.2167 21.6465 37.429C21.5364 37.6492 21.3871 37.7985 21.1827 37.8929C20.9862 37.9872 20.7504 38.0344 20.4832 38.0344C20.0744 38.0344 19.7522 37.9243 19.5242 37.7042C19.2963 37.4841 19.1862 37.1224 19.1862 36.6192V29.9992H16.0186V36.9023C16.0186 37.5548 16.1207 38.113 16.333 38.5769C16.553 39.0329 16.8832 39.3867 17.3391 39.6304C17.7871 39.8742 18.3688 40 19.0683 40C19.7679 40 20.3417 39.882 20.8054 39.6383C21.2692 39.4024 21.6386 39.0486 21.898 38.5848V39.8113H24.9792V29.9992H21.8037Z" fill="#050505"/>
<path d="M39.8591 30.581C39.3954 30.07 38.6487 29.8105 37.619 29.8105C36.9587 29.8105 36.4164 29.9363 35.9762 30.1879C35.536 30.4395 35.2059 30.8091 34.9937 31.2965C34.805 30.8091 34.4985 30.4395 34.0819 30.1879C33.6574 29.9363 33.0994 29.8105 32.4077 29.8105C31.8181 29.8105 31.3151 29.9206 30.8906 30.1486C30.4662 30.3766 30.136 30.699 29.9002 31.1314V29.9992H26.709V39.8113H29.9002V33.1127C29.9002 32.7982 29.9474 32.5387 30.0417 32.35C30.136 32.1535 30.2618 32.0041 30.419 31.9098C30.5762 31.8154 30.7649 31.7682 30.9771 31.7682C31.3308 31.7682 31.598 31.8783 31.7788 32.0906C31.9596 32.3029 32.0539 32.6488 32.0539 33.1127V39.8113H35.2216V33.1127C35.2216 32.7982 35.2688 32.5387 35.3631 32.35C35.4574 32.1535 35.5832 32.0041 35.7404 31.9098C35.8976 31.8154 36.0784 31.7682 36.2985 31.7682C36.6443 31.7682 36.9116 31.8783 37.1002 32.0906C37.281 32.3029 37.3675 32.6488 37.3675 33.1127V39.8113H40.5587V32.7746C40.5587 31.8311 40.3229 31.1 39.8591 30.581Z" fill="#050505"/>
<path d="M43.9227 29.9993C43.3489 29.9993 42.8066 29.8577 42.335 29.6061V39.8113H45.5183V29.6061C45.0389 29.8577 44.4965 29.9993 43.9227 29.9993Z" fill="#050505"/>
<path d="M53.1194 29.9992V31.0371C52.8365 30.6361 52.4592 30.3295 52.0111 30.1172C51.5552 29.9128 51.0443 29.8105 50.4627 29.8105C49.4408 29.8105 48.6312 30.1172 48.026 30.7226C47.4286 31.3358 47.1221 32.2714 47.1221 33.5294V36.2654C47.1221 37.5234 47.4286 38.459 48.026 39.0722C48.6312 39.6933 49.4408 40 50.4627 40C51.0443 40 51.5552 39.8978 52.0111 39.6855C52.4592 39.4811 52.8365 39.1744 53.1194 38.7735V39.8113H56.295V29.9992H53.1194ZM53.1194 36.2025C53.1194 36.8236 53.0094 37.2796 52.7814 37.5863C52.5535 37.885 52.1998 38.0344 51.7046 38.0344C51.2094 38.0344 50.8399 37.8929 50.6199 37.6099C50.3998 37.3268 50.2897 36.8787 50.2897 36.2654V33.5844C50.2897 32.9633 50.4076 32.5073 50.6356 32.2164C50.8557 31.9176 51.2172 31.7682 51.7046 31.7682C52.1919 31.7682 52.5535 31.9176 52.7814 32.2164C53.0094 32.5073 53.1194 32.9633 53.1194 33.5844V36.2025Z" fill="#050505"/>
<path d="M43.9218 28.1988C44.803 28.1988 45.5174 27.4842 45.5174 26.6028C45.5174 25.7213 44.803 25.0067 43.9218 25.0067C43.0406 25.0067 42.3262 25.7213 42.3262 26.6028C42.3262 27.4842 43.0406 28.1988 43.9218 28.1988Z" fill="#050505"/>
<path d="M56.2318 25.392L47.3026 26.2726C47.279 26.0446 47.2318 25.8323 47.1689 25.6201L50.934 24.4722L55.8938 22.9705C56.0432 23.7646 56.1532 24.5744 56.2318 25.3842V25.392Z" fill="#050505"/>
<path d="M55.3198 20.5096L50.3836 23.1435L46.9172 24.999C46.8229 24.8024 46.6971 24.6137 46.5557 24.4408L49.5897 21.9484L54.4631 17.9466C54.7932 18.7721 55.0762 19.6291 55.3198 20.5096Z" fill="#050505"/>
<path d="M40.6687 25.62C40.6058 25.8323 40.5586 26.0524 40.5429 26.2726L36.6364 25.8873L29.3578 25.1719L22.0713 24.4485L14.7849 23.7252L7.49847 23.0098L0.675781 22.3415C1.2653 19.5189 2.28714 16.8379 3.6784 14.3849L8.88974 15.9652L15.9089 18.0959L22.9124 20.2187L29.9237 22.3493L36.9272 24.4721L40.6923 25.62H40.6687Z" fill="#050505"/>
<path d="M53.2442 15.2419L46.0756 23.9768C45.9027 23.8353 45.7141 23.7095 45.5176 23.6073L47.3726 20.1479L50.8232 13.693L51.5307 12.3643C52.1595 13.2842 52.7254 14.2434 53.2442 15.2419Z" fill="#050505"/>
<path d="M41.2972 24.4407C41.1557 24.6137 41.0221 24.8024 40.9278 24.9989L37.4693 23.1513L24.547 16.2404L18.0938 12.7889L11.6327 9.32954L8.76367 7.79641C10.6973 5.94879 12.906 4.36063 15.3191 3.11053L15.6099 3.35426L21.2693 8.00083L26.9287 12.6474L32.588 17.2861L41.2815 24.425L41.2972 24.4407Z" fill="#050505"/>
<path d="M42.3192 23.6073C42.1227 23.7017 41.934 23.8353 41.7611 23.969L39.2773 20.9342L34.6319 15.2812L29.9943 9.62046L25.3411 3.9518L22.5664 0.571051C23.5096 0.374496 24.4764 0.232977 25.459 0.13863C26.8974 -0.00288949 28.328 -0.0343392 29.7192 0.0364207L30.1044 0.775469L33.5629 7.23821L37.0135 13.6931L40.4642 20.1558L42.3192 23.6231V23.6073Z" fill="#050505"/>
<path d="M41.6346 3.39354L43.584 23.222C43.356 23.2456 43.1438 23.2928 42.9316 23.3557L41.784 19.5897L39.6617 12.5845L37.5316 5.57924L36.1875 1.13708C38.0818 1.70316 39.9054 2.45794 41.6189 3.39354H41.6346Z" fill="#050505"/>
<path d="M49.1567 9.33741L48.1742 12.5766L46.0519 19.5897L44.9043 23.3557C44.6921 23.2928 44.472 23.2378 44.252 23.2299L44.6371 19.3146L45.3602 12.0342L45.9262 6.27115C47.0816 7.19889 48.1663 8.22098 49.1567 9.34527V9.33741Z" fill="#050505"/>
<path d="M80.3105 18.6201V20H75.002V18.6201H80.3105ZM75.292 7.20312V20H73.6748V7.20312H75.292ZM86.6826 18.374V13.2148C86.6826 12.8398 86.624 12.5381 86.5068 12.3096C86.3955 12.0811 86.2256 11.9141 85.9971 11.8086C85.7744 11.7031 85.4932 11.6504 85.1533 11.6504C84.8252 11.6504 84.541 11.7178 84.3008 11.8525C84.0664 11.9873 83.8848 12.166 83.7559 12.3887C83.6328 12.6113 83.5713 12.8574 83.5713 13.127H82.0156C82.0156 12.7871 82.0889 12.4502 82.2354 12.1162C82.3877 11.7822 82.6045 11.4805 82.8857 11.2109C83.167 10.9355 83.5039 10.7188 83.8965 10.5605C84.2949 10.3965 84.7402 10.3145 85.2324 10.3145C85.8184 10.3145 86.3369 10.4111 86.7881 10.6045C87.2393 10.792 87.5938 11.0996 87.8516 11.5273C88.1094 11.9551 88.2383 12.5234 88.2383 13.2324V17.9258C88.2383 18.2422 88.2617 18.5791 88.3086 18.9365C88.3613 19.2939 88.4346 19.6016 88.5283 19.8594V20H86.9199C86.8438 19.8125 86.7852 19.5635 86.7441 19.2529C86.7031 18.9365 86.6826 18.6436 86.6826 18.374ZM86.9287 14.2344L86.9463 15.377H85.8652C85.4961 15.377 85.1592 15.418 84.8545 15.5C84.5557 15.582 84.2979 15.7021 84.0811 15.8604C83.8643 16.0127 83.6973 16.2031 83.5801 16.4316C83.4688 16.6602 83.4131 16.9209 83.4131 17.2139C83.4131 17.5947 83.4658 17.8994 83.5713 18.1279C83.6768 18.3506 83.835 18.5117 84.0459 18.6113C84.2568 18.7109 84.5234 18.7607 84.8457 18.7607C85.2383 18.7607 85.584 18.6699 85.8828 18.4883C86.1816 18.3066 86.4131 18.0869 86.5771 17.8291C86.7471 17.5713 86.8262 17.3311 86.8145 17.1084L87.1572 17.8379C87.1338 18.0664 87.0576 18.3154 86.9287 18.585C86.8057 18.8486 86.6328 19.1035 86.4102 19.3496C86.1875 19.5898 85.9238 19.7891 85.6191 19.9473C85.3203 20.0996 84.9834 20.1758 84.6084 20.1758C84.0576 20.1758 83.5742 20.0703 83.1582 19.8594C82.748 19.6484 82.4287 19.3379 82.2002 18.9277C81.9717 18.5176 81.8574 18.0107 81.8574 17.4072C81.8574 16.9502 81.9365 16.5283 82.0947 16.1416C82.2529 15.7549 82.4873 15.4209 82.7979 15.1396C83.1084 14.8525 83.498 14.6299 83.9668 14.4717C84.4414 14.3135 84.9893 14.2344 85.6104 14.2344H86.9287ZM90.6553 6.5H92.2109V18.1543L92.0791 20H90.6553V6.5ZM97.5459 14.8145V15.7021C97.5459 16.4521 97.4756 17.1084 97.335 17.6709C97.2002 18.2275 96.998 18.6934 96.7285 19.0684C96.459 19.4375 96.1309 19.7158 95.7441 19.9033C95.3574 20.085 94.915 20.1758 94.417 20.1758C93.9248 20.1758 93.5 20.0762 93.1426 19.877C92.7852 19.6777 92.4863 19.3906 92.2461 19.0156C92.0059 18.6406 91.8154 18.1865 91.6748 17.6533C91.54 17.1201 91.4463 16.5195 91.3936 15.8516V14.665C91.4463 13.9912 91.54 13.3877 91.6748 12.8545C91.8096 12.3154 91.9971 11.8584 92.2373 11.4834C92.4775 11.1025 92.7764 10.8125 93.1338 10.6133C93.4912 10.4141 93.916 10.3145 94.4082 10.3145C94.9121 10.3145 95.3574 10.4023 95.7441 10.5781C96.1367 10.7539 96.4648 11.0264 96.7285 11.3955C96.998 11.7588 97.2002 12.2246 97.335 12.793C97.4756 13.3555 97.5459 14.0293 97.5459 14.8145ZM95.9902 15.7021V14.8145C95.9902 14.2871 95.9551 13.8271 95.8848 13.4346C95.8203 13.042 95.7119 12.7168 95.5596 12.459C95.4072 12.2012 95.2021 12.0078 94.9443 11.8789C94.6924 11.75 94.3789 11.6855 94.0039 11.6855C93.6875 11.6855 93.4092 11.75 93.1689 11.8789C92.9346 12.0078 92.7324 12.1836 92.5625 12.4062C92.3926 12.623 92.252 12.8721 92.1406 13.1533C92.0293 13.4287 91.9473 13.7158 91.8945 14.0146V16.5107C91.9707 16.8916 92.0908 17.2578 92.2549 17.6094C92.4248 17.9551 92.6533 18.2393 92.9404 18.4619C93.2275 18.6846 93.585 18.7959 94.0127 18.7959C94.3701 18.7959 94.6719 18.7344 94.918 18.6113C95.1699 18.4883 95.375 18.3008 95.5332 18.0488C95.6914 17.791 95.8057 17.4688 95.876 17.082C95.9521 16.6895 95.9902 16.2295 95.9902 15.7021ZM99.207 15.7021V14.7969C99.207 14.0586 99.3008 13.4111 99.4883 12.8545C99.6758 12.292 99.9365 11.8232 100.271 11.4482C100.604 11.0732 100.994 10.792 101.439 10.6045C101.885 10.4111 102.362 10.3145 102.872 10.3145C103.394 10.3145 103.877 10.4111 104.322 10.6045C104.768 10.792 105.157 11.0732 105.491 11.4482C105.831 11.8232 106.095 12.292 106.282 12.8545C106.47 13.4111 106.563 14.0586 106.563 14.7969V15.7021C106.563 16.4404 106.47 17.0908 106.282 17.6533C106.095 18.21 105.834 18.6758 105.5 19.0508C105.166 19.4258 104.776 19.707 104.331 19.8945C103.886 20.082 103.405 20.1758 102.89 20.1758C102.374 20.1758 101.894 20.082 101.448 19.8945C101.003 19.707 100.61 19.4258 100.271 19.0508C99.9365 18.6758 99.6758 18.21 99.4883 17.6533C99.3008 17.0908 99.207 16.4404 99.207 15.7021ZM100.763 14.7969V15.7021C100.763 16.2236 100.815 16.6807 100.921 17.0732C101.026 17.4658 101.176 17.7939 101.369 18.0576C101.562 18.3213 101.788 18.5205 102.046 18.6553C102.304 18.7842 102.585 18.8486 102.89 18.8486C103.241 18.8486 103.549 18.7842 103.812 18.6553C104.082 18.5205 104.305 18.3213 104.48 18.0576C104.656 17.7939 104.788 17.4658 104.876 17.0732C104.964 16.6807 105.008 16.2236 105.008 15.7021V14.7969C105.008 14.2754 104.955 13.8213 104.85 13.4346C104.744 13.042 104.595 12.7139 104.401 12.4502C104.208 12.1807 103.979 11.9814 103.716 11.8525C103.458 11.7178 103.177 11.6504 102.872 11.6504C102.573 11.6504 102.295 11.7178 102.037 11.8525C101.779 11.9814 101.554 12.1807 101.36 12.4502C101.173 12.7139 101.026 13.042 100.921 13.4346C100.815 13.8213 100.763 14.2754 100.763 14.7969ZM110.123 11.9844V20H108.567V10.4902H110.07L110.123 11.9844ZM112.487 10.4375L112.496 11.9492C112.367 11.9199 112.25 11.9023 112.145 11.8965C112.045 11.8848 111.928 11.8789 111.793 11.8789C111.5 11.8789 111.242 11.9375 111.02 12.0547C110.803 12.1719 110.615 12.3359 110.457 12.5469C110.299 12.7578 110.173 13.0098 110.079 13.3027C109.985 13.5898 109.921 13.9062 109.886 14.252L109.481 14.5156C109.481 13.9414 109.525 13.4023 109.613 12.8984C109.707 12.3945 109.851 11.9492 110.044 11.5625C110.237 11.1699 110.483 10.8652 110.782 10.6484C111.087 10.4258 111.45 10.3145 111.872 10.3145C111.966 10.3145 112.08 10.3291 112.215 10.3584C112.355 10.3818 112.446 10.4082 112.487 10.4375ZM118.358 18.374V13.2148C118.358 12.8398 118.3 12.5381 118.183 12.3096C118.071 12.0811 117.901 11.9141 117.673 11.8086C117.45 11.7031 117.169 11.6504 116.829 11.6504C116.501 11.6504 116.217 11.7178 115.977 11.8525C115.742 11.9873 115.561 12.166 115.432 12.3887C115.309 12.6113 115.247 12.8574 115.247 13.127H113.691C113.691 12.7871 113.765 12.4502 113.911 12.1162C114.063 11.7822 114.28 11.4805 114.562 11.2109C114.843 10.9355 115.18 10.7188 115.572 10.5605C115.971 10.3965 116.416 10.3145 116.908 10.3145C117.494 10.3145 118.013 10.4111 118.464 10.6045C118.915 10.792 119.27 11.0996 119.527 11.5273C119.785 11.9551 119.914 12.5234 119.914 13.2324V17.9258C119.914 18.2422 119.938 18.5791 119.984 18.9365C120.037 19.2939 120.11 19.6016 120.204 19.8594V20H118.596C118.52 19.8125 118.461 19.5635 118.42 19.2529C118.379 18.9365 118.358 18.6436 118.358 18.374ZM118.604 14.2344L118.622 15.377H117.541C117.172 15.377 116.835 15.418 116.53 15.5C116.231 15.582 115.974 15.7021 115.757 15.8604C115.54 16.0127 115.373 16.2031 115.256 16.4316C115.145 16.6602 115.089 16.9209 115.089 17.2139C115.089 17.5947 115.142 17.8994 115.247 18.1279C115.353 18.3506 115.511 18.5117 115.722 18.6113C115.933 18.7109 116.199 18.7607 116.521 18.7607C116.914 18.7607 117.26 18.6699 117.559 18.4883C117.857 18.3066 118.089 18.0869 118.253 17.8291C118.423 17.5713 118.502 17.3311 118.49 17.1084L118.833 17.8379C118.81 18.0664 118.733 18.3154 118.604 18.585C118.481 18.8486 118.309 19.1035 118.086 19.3496C117.863 19.5898 117.6 19.7891 117.295 19.9473C116.996 20.0996 116.659 20.1758 116.284 20.1758C115.733 20.1758 115.25 20.0703 114.834 19.8594C114.424 19.6484 114.104 19.3379 113.876 18.9277C113.647 18.5176 113.533 18.0107 113.533 17.4072C113.533 16.9502 113.612 16.5283 113.771 16.1416C113.929 15.7549 114.163 15.4209 114.474 15.1396C114.784 14.8525 115.174 14.6299 115.643 14.4717C116.117 14.3135 116.665 14.2344 117.286 14.2344H118.604ZM125.803 10.4902V11.7383H121.364V10.4902H125.803ZM122.814 8.17871H124.37V17.6445C124.37 17.9668 124.408 18.21 124.484 18.374C124.566 18.5381 124.669 18.6465 124.792 18.6992C124.915 18.752 125.047 18.7783 125.188 18.7783C125.293 18.7783 125.41 18.7666 125.539 18.7432C125.668 18.7139 125.756 18.6904 125.803 18.6729L125.794 20C125.688 20.041 125.548 20.0791 125.372 20.1143C125.196 20.1553 124.974 20.1758 124.704 20.1758C124.37 20.1758 124.06 20.0967 123.772 19.9385C123.485 19.7803 123.254 19.5166 123.078 19.1475C122.902 18.7725 122.814 18.2686 122.814 17.6357V8.17871ZM127.156 15.7021V14.7969C127.156 14.0586 127.25 13.4111 127.438 12.8545C127.625 12.292 127.886 11.8232 128.22 11.4482C128.554 11.0732 128.943 10.792 129.389 10.6045C129.834 10.4111 130.312 10.3145 130.821 10.3145C131.343 10.3145 131.826 10.4111 132.271 10.6045C132.717 10.792 133.106 11.0732 133.44 11.4482C133.78 11.8232 134.044 12.292 134.231 12.8545C134.419 13.4111 134.513 14.0586 134.513 14.7969V15.7021C134.513 16.4404 134.419 17.0908 134.231 17.6533C134.044 18.21 133.783 18.6758 133.449 19.0508C133.115 19.4258 132.726 19.707 132.28 19.8945C131.835 20.082 131.354 20.1758 130.839 20.1758C130.323 20.1758 129.843 20.082 129.397 19.8945C128.952 19.707 128.56 19.4258 128.22 19.0508C127.886 18.6758 127.625 18.21 127.438 17.6533C127.25 17.0908 127.156 16.4404 127.156 15.7021ZM128.712 14.7969V15.7021C128.712 16.2236 128.765 16.6807 128.87 17.0732C128.976 17.4658 129.125 17.7939 129.318 18.0576C129.512 18.3213 129.737 18.5205 129.995 18.6553C130.253 18.7842 130.534 18.8486 130.839 18.8486C131.19 18.8486 131.498 18.7842 131.762 18.6553C132.031 18.5205 132.254 18.3213 132.43 18.0576C132.605 17.7939 132.737 17.4658 132.825 17.0732C132.913 16.6807 132.957 16.2236 132.957 15.7021V14.7969C132.957 14.2754 132.904 13.8213 132.799 13.4346C132.693 13.042 132.544 12.7139 132.351 12.4502C132.157 12.1807 131.929 11.9814 131.665 11.8525C131.407 11.7178 131.126 11.6504 130.821 11.6504C130.522 11.6504 130.244 11.7178 129.986 11.8525C129.729 11.9814 129.503 12.1807 129.31 12.4502C129.122 12.7139 128.976 13.042 128.87 13.4346C128.765 13.8213 128.712 14.2754 128.712 14.7969ZM129.846 9.08398L131.551 6.5H133.511L131.155 9.08398H129.846ZM138.072 11.9844V20H136.517V10.4902H138.02L138.072 11.9844ZM140.437 10.4375L140.445 11.9492C140.316 11.9199 140.199 11.9023 140.094 11.8965C139.994 11.8848 139.877 11.8789 139.742 11.8789C139.449 11.8789 139.191 11.9375 138.969 12.0547C138.752 12.1719 138.564 12.3359 138.406 12.5469C138.248 12.7578 138.122 13.0098 138.028 13.3027C137.935 13.5898 137.87 13.9062 137.835 14.252L137.431 14.5156C137.431 13.9414 137.475 13.4023 137.562 12.8984C137.656 12.3945 137.8 11.9492 137.993 11.5625C138.187 11.1699 138.433 10.8652 138.731 10.6484C139.036 10.4258 139.399 10.3145 139.821 10.3145C139.915 10.3145 140.029 10.3291 140.164 10.3584C140.305 10.3818 140.396 10.4082 140.437 10.4375ZM143.671 10.4902V20H142.124V10.4902H143.671ZM142.036 7.96777C142.036 7.7041 142.109 7.48145 142.256 7.2998C142.402 7.11816 142.622 7.02734 142.915 7.02734C143.208 7.02734 143.428 7.11816 143.574 7.2998C143.727 7.48145 143.803 7.7041 143.803 7.96777C143.803 8.21973 143.727 8.43652 143.574 8.61816C143.428 8.79395 143.208 8.88184 142.915 8.88184C142.622 8.88184 142.402 8.79395 142.256 8.61816C142.109 8.43652 142.036 8.21973 142.036 7.96777ZM145.807 15.7021V14.7969C145.807 14.0586 145.9 13.4111 146.088 12.8545C146.275 12.292 146.536 11.8232 146.87 11.4482C147.204 11.0732 147.594 10.792 148.039 10.6045C148.484 10.4111 148.962 10.3145 149.472 10.3145C149.993 10.3145 150.477 10.4111 150.922 10.6045C151.367 10.792 151.757 11.0732 152.091 11.4482C152.431 11.8232 152.694 12.292 152.882 12.8545C153.069 13.4111 153.163 14.0586 153.163 14.7969V15.7021C153.163 16.4404 153.069 17.0908 152.882 17.6533C152.694 18.21 152.434 18.6758 152.1 19.0508C151.766 19.4258 151.376 19.707 150.931 19.8945C150.485 20.082 150.005 20.1758 149.489 20.1758C148.974 20.1758 148.493 20.082 148.048 19.8945C147.603 19.707 147.21 19.4258 146.87 19.0508C146.536 18.6758 146.275 18.21 146.088 17.6533C145.9 17.0908 145.807 16.4404 145.807 15.7021ZM147.362 14.7969V15.7021C147.362 16.2236 147.415 16.6807 147.521 17.0732C147.626 17.4658 147.775 17.7939 147.969 18.0576C148.162 18.3213 148.388 18.5205 148.646 18.6553C148.903 18.7842 149.185 18.8486 149.489 18.8486C149.841 18.8486 150.148 18.7842 150.412 18.6553C150.682 18.5205 150.904 18.3213 151.08 18.0576C151.256 17.7939 151.388 17.4658 151.476 17.0732C151.563 16.6807 151.607 16.2236 151.607 15.7021V14.7969C151.607 14.2754 151.555 13.8213 151.449 13.4346C151.344 13.042 151.194 12.7139 151.001 12.4502C150.808 12.1807 150.579 11.9814 150.315 11.8525C150.058 11.7178 149.776 11.6504 149.472 11.6504C149.173 11.6504 148.895 11.7178 148.637 11.8525C148.379 11.9814 148.153 12.1807 147.96 12.4502C147.772 12.7139 147.626 13.042 147.521 13.4346C147.415 13.8213 147.362 14.2754 147.362 14.7969ZM164.281 18.1543V6.5H165.828V20H164.413L164.281 18.1543ZM158.964 15.7021V14.8145C158.964 14.0293 159.04 13.3555 159.192 12.793C159.345 12.2246 159.562 11.7588 159.843 11.3955C160.124 11.0264 160.461 10.7539 160.854 10.5781C161.246 10.4023 161.68 10.3145 162.154 10.3145C162.646 10.3145 163.068 10.4141 163.42 10.6133C163.777 10.8125 164.076 11.1025 164.316 11.4834C164.557 11.8584 164.744 12.3154 164.879 12.8545C165.02 13.3877 165.113 13.9912 165.16 14.665V15.8516C165.107 16.5195 165.011 17.1201 164.87 17.6533C164.735 18.1865 164.548 18.6406 164.308 19.0156C164.067 19.3906 163.769 19.6777 163.411 19.877C163.054 20.0762 162.629 20.1758 162.137 20.1758C161.668 20.1758 161.24 20.085 160.854 19.9033C160.467 19.7158 160.13 19.4375 159.843 19.0684C159.562 18.6934 159.345 18.2275 159.192 17.6709C159.04 17.1084 158.964 16.4521 158.964 15.7021ZM160.52 14.8145V15.7021C160.52 16.2295 160.558 16.6895 160.634 17.082C160.71 17.4688 160.83 17.791 160.994 18.0488C161.158 18.3008 161.366 18.4883 161.618 18.6113C161.876 18.7344 162.184 18.7959 162.541 18.7959C162.975 18.7959 163.329 18.6904 163.604 18.4795C163.88 18.2686 164.1 17.9902 164.264 17.6445C164.434 17.293 164.568 16.915 164.668 16.5107V14.0146C164.609 13.7158 164.524 13.4287 164.413 13.1533C164.302 12.8721 164.161 12.623 163.991 12.4062C163.827 12.1836 163.625 12.0078 163.385 11.8789C163.15 11.75 162.875 11.6855 162.559 11.6855C162.201 11.6855 161.891 11.75 161.627 11.8789C161.369 12.0078 161.158 12.2012 160.994 12.459C160.836 12.7168 160.716 13.042 160.634 13.4346C160.558 13.8271 160.52 14.2871 160.52 14.8145ZM171.629 20.1758C171.061 20.1758 170.548 20.0908 170.091 19.9209C169.634 19.751 169.244 19.4932 168.922 19.1475C168.6 18.7959 168.354 18.3535 168.184 17.8203C168.014 17.2871 167.929 16.6572 167.929 15.9307V14.8584C167.929 14.0205 168.025 13.3115 168.219 12.7314C168.418 12.1514 168.685 11.6855 169.019 11.334C169.353 10.9766 169.73 10.7188 170.152 10.5605C170.574 10.3965 171.008 10.3145 171.453 10.3145C172.051 10.3145 172.561 10.4111 172.982 10.6045C173.404 10.7979 173.747 11.085 174.011 11.4658C174.274 11.8467 174.468 12.3154 174.591 12.8721C174.72 13.4287 174.784 14.0703 174.784 14.7969V15.7021H168.843V14.375H173.229V14.1553C173.205 13.6631 173.138 13.2295 173.026 12.8545C172.921 12.4795 172.745 12.1865 172.499 11.9756C172.253 11.7588 171.904 11.6504 171.453 11.6504C171.166 11.6504 170.899 11.7002 170.653 11.7998C170.413 11.8936 170.205 12.0605 170.029 12.3008C169.859 12.5352 169.725 12.8604 169.625 13.2764C169.531 13.6924 169.484 14.2197 169.484 14.8584V15.9307C169.484 16.4404 169.531 16.8799 169.625 17.249C169.725 17.6123 169.868 17.9141 170.056 18.1543C170.249 18.3887 170.483 18.5645 170.759 18.6816C171.04 18.793 171.359 18.8486 171.717 18.8486C172.238 18.8486 172.669 18.749 173.009 18.5498C173.349 18.3447 173.645 18.084 173.896 17.7676L174.714 18.7432C174.544 18.9834 174.321 19.2148 174.046 19.4375C173.776 19.6543 173.442 19.833 173.044 19.9736C172.651 20.1084 172.18 20.1758 171.629 20.1758ZM80.082 35.9307H81.6992C81.6582 36.8096 81.4795 37.5684 81.1631 38.207C80.8525 38.8398 80.3984 39.3262 79.8008 39.666C79.209 40.0059 78.4678 40.1758 77.5771 40.1758C76.9385 40.1758 76.3613 40.0498 75.8457 39.7979C75.3301 39.5459 74.8877 39.1855 74.5186 38.7168C74.1553 38.2422 73.877 37.6738 73.6836 37.0117C73.4902 36.3496 73.3936 35.6055 73.3936 34.7793V32.415C73.3936 31.5947 73.4902 30.8535 73.6836 30.1914C73.8828 29.5293 74.167 28.9639 74.5361 28.4951C74.9111 28.0205 75.3652 27.6572 75.8984 27.4053C76.4375 27.1533 77.0469 27.0273 77.7266 27.0273C78.5586 27.0273 79.2617 27.1943 79.8359 27.5283C80.416 27.8564 80.8613 28.3398 81.1719 28.9785C81.4883 29.6113 81.6641 30.3877 81.6992 31.3076H80.082C80.041 30.6338 79.9355 30.0859 79.7656 29.6641C79.5957 29.2363 79.3438 28.9229 79.0098 28.7236C78.6816 28.5186 78.2539 28.416 77.7266 28.416C77.2578 28.416 76.8506 28.5098 76.5049 28.6973C76.165 28.8848 75.8838 29.1543 75.6611 29.5059C75.4443 29.8516 75.2803 30.2705 75.1689 30.7627C75.0635 31.249 75.0107 31.7939 75.0107 32.3975V34.7793C75.0107 35.3418 75.0547 35.8662 75.1426 36.3525C75.2363 36.8389 75.3828 37.2666 75.582 37.6357C75.7871 37.999 76.0537 38.2832 76.3818 38.4883C76.71 38.6934 77.1084 38.7959 77.5771 38.7959C78.1689 38.7959 78.6377 38.6992 78.9834 38.5059C79.3291 38.3125 79.584 38.0049 79.748 37.583C79.918 37.1611 80.0293 36.6104 80.082 35.9307ZM83.3516 35.7021V34.7969C83.3516 34.0586 83.4453 33.4111 83.6328 32.8545C83.8203 32.292 84.0811 31.8232 84.415 31.4482C84.749 31.0732 85.1387 30.792 85.584 30.6045C86.0293 30.4111 86.5068 30.3145 87.0166 30.3145C87.5381 30.3145 88.0215 30.4111 88.4668 30.6045C88.9121 30.792 89.3018 31.0732 89.6357 31.4482C89.9756 31.8232 90.2393 32.292 90.4268 32.8545C90.6143 33.4111 90.708 34.0586 90.708 34.7969V35.7021C90.708 36.4404 90.6143 37.0908 90.4268 37.6533C90.2393 38.21 89.9785 38.6758 89.6445 39.0508C89.3105 39.4258 88.9209 39.707 88.4756 39.8945C88.0303 40.082 87.5498 40.1758 87.0342 40.1758C86.5186 40.1758 86.0381 40.082 85.5928 39.8945C85.1475 39.707 84.7549 39.4258 84.415 39.0508C84.0811 38.6758 83.8203 38.21 83.6328 37.6533C83.4453 37.0908 83.3516 36.4404 83.3516 35.7021ZM84.9072 34.7969V35.7021C84.9072 36.2236 84.96 36.6807 85.0654 37.0732C85.1709 37.4658 85.3203 37.7939 85.5137 38.0576C85.707 38.3213 85.9326 38.5205 86.1904 38.6553C86.4482 38.7842 86.7295 38.8486 87.0342 38.8486C87.3857 38.8486 87.6934 38.7842 87.957 38.6553C88.2266 38.5205 88.4492 38.3213 88.625 38.0576C88.8008 37.7939 88.9326 37.4658 89.0205 37.0732C89.1084 36.6807 89.1523 36.2236 89.1523 35.7021V34.7969C89.1523 34.2754 89.0996 33.8213 88.9941 33.4346C88.8887 33.042 88.7393 32.7139 88.5459 32.4502C88.3525 32.1807 88.124 31.9814 87.8604 31.8525C87.6025 31.7178 87.3213 31.6504 87.0166 31.6504C86.7178 31.6504 86.4395 31.7178 86.1816 31.8525C85.9238 31.9814 85.6982 32.1807 85.5049 32.4502C85.3174 32.7139 85.1709 33.042 85.0654 33.4346C84.96 33.8213 84.9072 34.2754 84.9072 34.7969ZM94.2676 32.3799V40H92.7207V30.4902H94.1797L94.2676 32.3799ZM93.9512 34.8848L93.2305 34.8584C93.2246 34.208 93.2891 33.6074 93.4238 33.0566C93.5586 32.5 93.7607 32.0166 94.0303 31.6064C94.3057 31.1963 94.6484 30.8799 95.0586 30.6572C95.4746 30.4287 95.958 30.3145 96.5088 30.3145C96.8721 30.3145 97.209 30.3789 97.5195 30.5078C97.8359 30.6309 98.1113 30.8271 98.3457 31.0967C98.5801 31.3662 98.7617 31.7119 98.8906 32.1338C99.0254 32.5557 99.0928 33.0654 99.0928 33.6631V40H97.5371V33.7422C97.5371 33.2441 97.4697 32.8457 97.335 32.5469C97.2061 32.248 97.0215 32.0312 96.7812 31.8965C96.541 31.7559 96.2539 31.6855 95.9199 31.6855C95.5391 31.6855 95.2197 31.7705 94.9619 31.9404C94.71 32.1104 94.5078 32.3447 94.3555 32.6436C94.209 32.9424 94.1035 33.2852 94.0391 33.6719C93.9805 34.0527 93.9512 34.457 93.9512 34.8848ZM99.0752 33.9883L98.0381 34.3223C98.0322 33.8008 98.0967 33.2998 98.2314 32.8193C98.3662 32.3389 98.5654 31.9111 98.8291 31.5361C99.0986 31.1611 99.4326 30.8652 99.8311 30.6484C100.229 30.4258 100.692 30.3145 101.22 30.3145C101.653 30.3145 102.037 30.3818 102.371 30.5166C102.705 30.6514 102.986 30.8594 103.215 31.1406C103.449 31.416 103.625 31.7705 103.742 32.2041C103.859 32.6377 103.918 33.1533 103.918 33.751V40H102.362V33.7334C102.362 33.2002 102.295 32.7871 102.16 32.4941C102.031 32.1953 101.847 31.9873 101.606 31.8701C101.366 31.7471 101.079 31.6855 100.745 31.6855C100.476 31.6855 100.235 31.7471 100.024 31.8701C99.8193 31.9932 99.6465 32.1631 99.5059 32.3799C99.3652 32.5908 99.2568 32.834 99.1807 33.1094C99.1104 33.3848 99.0752 33.6777 99.0752 33.9883ZM106.265 26.5H107.82V38.1543L107.688 40H106.265V26.5ZM113.155 34.8145V35.7021C113.155 36.4521 113.085 37.1084 112.944 37.6709C112.81 38.2275 112.607 38.6934 112.338 39.0684C112.068 39.4375 111.74 39.7158 111.354 39.9033C110.967 40.085 110.524 40.1758 110.026 40.1758C109.534 40.1758 109.109 40.0762 108.752 39.877C108.395 39.6777 108.096 39.3906 107.855 39.0156C107.615 38.6406 107.425 38.1865 107.284 37.6533C107.149 37.1201 107.056 36.5195 107.003 35.8516V34.665C107.056 33.9912 107.149 33.3877 107.284 32.8545C107.419 32.3154 107.606 31.8584 107.847 31.4834C108.087 31.1025 108.386 30.8125 108.743 30.6133C109.101 30.4141 109.525 30.3145 110.018 30.3145C110.521 30.3145 110.967 30.4023 111.354 30.5781C111.746 30.7539 112.074 31.0264 112.338 31.3955C112.607 31.7588 112.81 32.2246 112.944 32.793C113.085 33.3555 113.155 34.0293 113.155 34.8145ZM111.6 35.7021V34.8145C111.6 34.2871 111.564 33.8271 111.494 33.4346C111.43 33.042 111.321 32.7168 111.169 32.459C111.017 32.2012 110.812 32.0078 110.554 31.8789C110.302 31.75 109.988 31.6855 109.613 31.6855C109.297 31.6855 109.019 31.75 108.778 31.8789C108.544 32.0078 108.342 32.1836 108.172 32.4062C108.002 32.623 107.861 32.8721 107.75 33.1533C107.639 33.4287 107.557 33.7158 107.504 34.0146V36.5107C107.58 36.8916 107.7 37.2578 107.864 37.6094C108.034 37.9551 108.263 38.2393 108.55 38.4619C108.837 38.6846 109.194 38.7959 109.622 38.7959C109.979 38.7959 110.281 38.7344 110.527 38.6113C110.779 38.4883 110.984 38.3008 111.143 38.0488C111.301 37.791 111.415 37.4688 111.485 37.082C111.562 36.6895 111.6 36.2295 111.6 35.7021ZM119.8 38.374V33.2148C119.8 32.8398 119.741 32.5381 119.624 32.3096C119.513 32.0811 119.343 31.9141 119.114 31.8086C118.892 31.7031 118.61 31.6504 118.271 31.6504C117.942 31.6504 117.658 31.7178 117.418 31.8525C117.184 31.9873 117.002 32.166 116.873 32.3887C116.75 32.6113 116.688 32.8574 116.688 33.127H115.133C115.133 32.7871 115.206 32.4502 115.353 32.1162C115.505 31.7822 115.722 31.4805 116.003 31.2109C116.284 30.9355 116.621 30.7188 117.014 30.5605C117.412 30.3965 117.857 30.3145 118.35 30.3145C118.936 30.3145 119.454 30.4111 119.905 30.6045C120.356 30.792 120.711 31.0996 120.969 31.5273C121.227 31.9551 121.355 32.5234 121.355 33.2324V37.9258C121.355 38.2422 121.379 38.5791 121.426 38.9365C121.479 39.2939 121.552 39.6016 121.646 39.8594V40H120.037C119.961 39.8125 119.902 39.5635 119.861 39.2529C119.82 38.9365 119.8 38.6436 119.8 38.374ZM120.046 34.2344L120.063 35.377H118.982C118.613 35.377 118.276 35.418 117.972 35.5C117.673 35.582 117.415 35.7021 117.198 35.8604C116.981 36.0127 116.814 36.2031 116.697 36.4316C116.586 36.6602 116.53 36.9209 116.53 37.2139C116.53 37.5947 116.583 37.8994 116.688 38.1279C116.794 38.3506 116.952 38.5117 117.163 38.6113C117.374 38.7109 117.641 38.7607 117.963 38.7607C118.355 38.7607 118.701 38.6699 119 38.4883C119.299 38.3066 119.53 38.0869 119.694 37.8291C119.864 37.5713 119.943 37.3311 119.932 37.1084L120.274 37.8379C120.251 38.0664 120.175 38.3154 120.046 38.585C119.923 38.8486 119.75 39.1035 119.527 39.3496C119.305 39.5898 119.041 39.7891 118.736 39.9473C118.438 40.0996 118.101 40.1758 117.726 40.1758C117.175 40.1758 116.691 40.0703 116.275 39.8594C115.865 39.6484 115.546 39.3379 115.317 38.9277C115.089 38.5176 114.975 38.0107 114.975 37.4072C114.975 36.9502 115.054 36.5283 115.212 36.1416C115.37 35.7549 115.604 35.4209 115.915 35.1396C116.226 34.8525 116.615 34.6299 117.084 34.4717C117.559 34.3135 118.106 34.2344 118.728 34.2344H120.046ZM127.244 30.4902V31.7383H122.806V30.4902H127.244ZM124.256 28.1787H125.812V37.6445C125.812 37.9668 125.85 38.21 125.926 38.374C126.008 38.5381 126.11 38.6465 126.233 38.6992C126.356 38.752 126.488 38.7783 126.629 38.7783C126.734 38.7783 126.852 38.7666 126.98 38.7432C127.109 38.7139 127.197 38.6904 127.244 38.6729L127.235 40C127.13 40.041 126.989 40.0791 126.813 40.1143C126.638 40.1553 126.415 40.1758 126.146 40.1758C125.812 40.1758 125.501 40.0967 125.214 39.9385C124.927 39.7803 124.695 39.5166 124.52 39.1475C124.344 38.7725 124.256 38.2686 124.256 37.6357V28.1787ZM132.5 40.1758C131.932 40.1758 131.419 40.0908 130.962 39.9209C130.505 39.751 130.115 39.4932 129.793 39.1475C129.471 38.7959 129.225 38.3535 129.055 37.8203C128.885 37.2871 128.8 36.6572 128.8 35.9307V34.8584C128.8 34.0205 128.896 33.3115 129.09 32.7314C129.289 32.1514 129.556 31.6855 129.89 31.334C130.224 30.9766 130.602 30.7188 131.023 30.5605C131.445 30.3965 131.879 30.3145 132.324 30.3145C132.922 30.3145 133.432 30.4111 133.854 30.6045C134.275 30.7979 134.618 31.085 134.882 31.4658C135.146 31.8467 135.339 32.3154 135.462 32.8721C135.591 33.4287 135.655 34.0703 135.655 34.7969V35.7021H129.714V34.375H134.1V34.1553C134.076 33.6631 134.009 33.2295 133.897 32.8545C133.792 32.4795 133.616 32.1865 133.37 31.9756C133.124 31.7588 132.775 31.6504 132.324 31.6504C132.037 31.6504 131.771 31.7002 131.524 31.7998C131.284 31.8936 131.076 32.0605 130.9 32.3008C130.73 32.5352 130.596 32.8604 130.496 33.2764C130.402 33.6924 130.355 34.2197 130.355 34.8584V35.9307C130.355 36.4404 130.402 36.8799 130.496 37.249C130.596 37.6123 130.739 37.9141 130.927 38.1543C131.12 38.3887 131.354 38.5645 131.63 38.6816C131.911 38.793 132.23 38.8486 132.588 38.8486C133.109 38.8486 133.54 38.749 133.88 38.5498C134.22 38.3447 134.516 38.084 134.768 37.7676L135.585 38.7432C135.415 38.9834 135.192 39.2148 134.917 39.4375C134.647 39.6543 134.313 39.833 133.915 39.9736C133.522 40.1084 133.051 40.1758 132.5 40.1758ZM146.325 38.374V33.2148C146.325 32.8398 146.267 32.5381 146.149 32.3096C146.038 32.0811 145.868 31.9141 145.64 31.8086C145.417 31.7031 145.136 31.6504 144.796 31.6504C144.468 31.6504 144.184 31.7178 143.943 31.8525C143.709 31.9873 143.527 32.166 143.398 32.3887C143.275 32.6113 143.214 32.8574 143.214 33.127H141.658C141.658 32.7871 141.731 32.4502 141.878 32.1162C142.03 31.7822 142.247 31.4805 142.528 31.2109C142.81 30.9355 143.146 30.7188 143.539 30.5605C143.938 30.3965 144.383 30.3145 144.875 30.3145C145.461 30.3145 145.979 30.4111 146.431 30.6045C146.882 30.792 147.236 31.0996 147.494 31.5273C147.752 31.9551 147.881 32.5234 147.881 33.2324V37.9258C147.881 38.2422 147.904 38.5791 147.951 38.9365C148.004 39.2939 148.077 39.6016 148.171 39.8594V40H146.562C146.486 39.8125 146.428 39.5635 146.387 39.2529C146.346 38.9365 146.325 38.6436 146.325 38.374ZM146.571 34.2344L146.589 35.377H145.508C145.139 35.377 144.802 35.418 144.497 35.5C144.198 35.582 143.94 35.7021 143.724 35.8604C143.507 36.0127 143.34 36.2031 143.223 36.4316C143.111 36.6602 143.056 36.9209 143.056 37.2139C143.056 37.5947 143.108 37.8994 143.214 38.1279C143.319 38.3506 143.478 38.5117 143.688 38.6113C143.899 38.7109 144.166 38.7607 144.488 38.7607C144.881 38.7607 145.227 38.6699 145.525 38.4883C145.824 38.3066 146.056 38.0869 146.22 37.8291C146.39 37.5713 146.469 37.3311 146.457 37.1084L146.8 37.8379C146.776 38.0664 146.7 38.3154 146.571 38.585C146.448 38.8486 146.275 39.1035 146.053 39.3496C145.83 39.5898 145.566 39.7891 145.262 39.9473C144.963 40.0996 144.626 40.1758 144.251 40.1758C143.7 40.1758 143.217 40.0703 142.801 39.8594C142.391 39.6484 142.071 39.3379 141.843 38.9277C141.614 38.5176 141.5 38.0107 141.5 37.4072C141.5 36.9502 141.579 36.5283 141.737 36.1416C141.896 35.7549 142.13 35.4209 142.44 35.1396C142.751 34.8525 143.141 34.6299 143.609 34.4717C144.084 34.3135 144.632 34.2344 145.253 34.2344H146.571ZM144.198 26.5L145.895 29.084H144.497L142.229 26.5H144.198ZM157.54 40H155.36L155.378 38.6201H157.54C158.308 38.6201 158.932 38.4736 159.412 38.1807C159.893 37.8818 160.247 37.4424 160.476 36.8623C160.704 36.2764 160.818 35.5527 160.818 34.6914V32.5029C160.818 31.8232 160.754 31.2373 160.625 30.7451C160.496 30.2529 160.303 29.8486 160.045 29.5322C159.787 29.2158 159.462 28.9814 159.069 28.8291C158.677 28.6709 158.217 28.5918 157.689 28.5918H155.316V27.2031H157.689C158.41 27.2031 159.061 27.3174 159.641 27.5459C160.221 27.7686 160.719 28.1055 161.135 28.5566C161.551 29.002 161.867 29.5557 162.084 30.2178C162.307 30.8799 162.418 31.6475 162.418 32.5205V34.6914C162.418 35.5645 162.307 36.332 162.084 36.9941C161.867 37.6562 161.548 38.21 161.126 38.6553C160.704 39.1006 160.191 39.4375 159.588 39.666C158.99 39.8887 158.308 40 157.54 40ZM156.257 27.2031V40H154.64V27.2031H156.257ZM168.113 40.1758C167.545 40.1758 167.032 40.0908 166.575 39.9209C166.118 39.751 165.729 39.4932 165.406 39.1475C165.084 38.7959 164.838 38.3535 164.668 37.8203C164.498 37.2871 164.413 36.6572 164.413 35.9307V34.8584C164.413 34.0205 164.51 33.3115 164.703 32.7314C164.902 32.1514 165.169 31.6855 165.503 31.334C165.837 30.9766 166.215 30.7188 166.637 30.5605C167.059 30.3965 167.492 30.3145 167.938 30.3145C168.535 30.3145 169.045 30.4111 169.467 30.6045C169.889 30.7979 170.231 31.085 170.495 31.4658C170.759 31.8467 170.952 32.3154 171.075 32.8721C171.204 33.4287 171.269 34.0703 171.269 34.7969V35.7021H165.327V34.375H169.713V34.1553C169.689 33.6631 169.622 33.2295 169.511 32.8545C169.405 32.4795 169.229 32.1865 168.983 31.9756C168.737 31.7588 168.389 31.6504 167.938 31.6504C167.65 31.6504 167.384 31.7002 167.138 31.7998C166.897 31.8936 166.689 32.0605 166.514 32.3008C166.344 32.5352 166.209 32.8604 166.109 33.2764C166.016 33.6924 165.969 34.2197 165.969 34.8584V35.9307C165.969 36.4404 166.016 36.8799 166.109 37.249C166.209 37.6123 166.353 37.9141 166.54 38.1543C166.733 38.3887 166.968 38.5645 167.243 38.6816C167.524 38.793 167.844 38.8486 168.201 38.8486C168.723 38.8486 169.153 38.749 169.493 38.5498C169.833 38.3447 170.129 38.084 170.381 37.7676L171.198 38.7432C171.028 38.9834 170.806 39.2148 170.53 39.4375C170.261 39.6543 169.927 39.833 169.528 39.9736C169.136 40.1084 168.664 40.1758 168.113 40.1758ZM177.764 37.5654C177.764 37.3252 177.705 37.1143 177.588 36.9326C177.471 36.751 177.277 36.5752 177.008 36.4053C176.744 36.2354 176.387 36.0537 175.936 35.8604C175.496 35.6787 175.101 35.5 174.749 35.3242C174.403 35.1426 174.11 34.9463 173.87 34.7354C173.63 34.5244 173.445 34.2812 173.316 34.0059C173.193 33.7246 173.132 33.3936 173.132 33.0127C173.132 32.6318 173.202 32.2803 173.343 31.958C173.489 31.6299 173.694 31.3428 173.958 31.0967C174.222 30.8506 174.538 30.6602 174.907 30.5254C175.276 30.3848 175.689 30.3145 176.146 30.3145C176.797 30.3145 177.351 30.4404 177.808 30.6924C178.265 30.9443 178.613 31.29 178.854 31.7295C179.1 32.1631 179.223 32.6523 179.223 33.1973H177.676C177.676 32.9336 177.617 32.6846 177.5 32.4502C177.383 32.2158 177.21 32.0254 176.981 31.8789C176.753 31.7266 176.475 31.6504 176.146 31.6504C175.801 31.6504 175.52 31.7119 175.303 31.835C175.086 31.958 174.928 32.1191 174.828 32.3184C174.734 32.5117 174.688 32.7256 174.688 32.96C174.688 33.1357 174.711 33.2881 174.758 33.417C174.811 33.54 174.898 33.6572 175.021 33.7686C175.145 33.874 175.312 33.9854 175.522 34.1025C175.739 34.2139 176.015 34.3428 176.349 34.4893C176.993 34.7412 177.535 34.9961 177.975 35.2539C178.414 35.5117 178.748 35.8135 178.977 36.1592C179.205 36.5049 179.319 36.9326 179.319 37.4424C179.319 37.8584 179.243 38.2363 179.091 38.5762C178.944 38.9102 178.733 39.1973 178.458 39.4375C178.183 39.6777 177.852 39.8623 177.465 39.9912C177.084 40.1143 176.656 40.1758 176.182 40.1758C175.467 40.1758 174.86 40.0352 174.362 39.7539C173.87 39.4668 173.495 39.0947 173.237 38.6377C172.985 38.1748 172.859 37.6797 172.859 37.1523H174.415C174.433 37.5977 174.532 37.9434 174.714 38.1895C174.901 38.4355 175.127 38.6055 175.391 38.6992C175.654 38.793 175.918 38.8398 176.182 38.8398C176.527 38.8398 176.817 38.79 177.052 38.6904C177.286 38.585 177.462 38.4355 177.579 38.2422C177.702 38.0488 177.764 37.8232 177.764 37.5654ZM183.028 30.4902V40H181.481V30.4902H183.028ZM181.394 27.9678C181.394 27.7041 181.467 27.4814 181.613 27.2998C181.76 27.1182 181.979 27.0273 182.272 27.0273C182.565 27.0273 182.785 27.1182 182.932 27.2998C183.084 27.4814 183.16 27.7041 183.16 27.9678C183.16 28.2197 183.084 28.4365 182.932 28.6182C182.785 28.7939 182.565 28.8818 182.272 28.8818C181.979 28.8818 181.76 28.7939 181.613 28.6182C181.467 28.4365 181.394 28.2197 181.394 27.9678ZM187.045 32.5205V40H185.489V30.4902H186.957L187.045 32.5205ZM186.667 34.8848L186.034 34.8584C186.028 34.208 186.102 33.6074 186.254 33.0566C186.412 32.5 186.635 32.0166 186.922 31.6064C187.215 31.1963 187.563 30.8799 187.968 30.6572C188.372 30.4287 188.82 30.3145 189.312 30.3145C189.699 30.3145 190.051 30.3789 190.367 30.5078C190.684 30.6309 190.953 30.8301 191.176 31.1055C191.398 31.3809 191.568 31.7383 191.686 32.1777C191.809 32.6113 191.87 33.1416 191.87 33.7686V40H190.314V33.751C190.314 33.2529 190.259 32.8545 190.147 32.5557C190.042 32.251 189.878 32.0312 189.655 31.8965C189.438 31.7559 189.163 31.6855 188.829 31.6855C188.524 31.6855 188.24 31.7705 187.977 31.9404C187.713 32.1104 187.481 32.3447 187.282 32.6436C187.089 32.9424 186.937 33.2852 186.825 33.6719C186.72 34.0527 186.667 34.457 186.667 34.8848ZM196.449 40H194.894V29.4883C194.894 28.8027 195.002 28.2256 195.219 27.7568C195.441 27.2822 195.755 26.9248 196.159 26.6846C196.569 26.4385 197.056 26.3154 197.618 26.3154C197.776 26.3154 197.935 26.3271 198.093 26.3506C198.257 26.374 198.412 26.4092 198.559 26.4561L198.488 27.7832C198.395 27.7539 198.28 27.7334 198.146 27.7217C198.017 27.71 197.894 27.7041 197.776 27.7041C197.495 27.7041 197.255 27.7744 197.056 27.915C196.856 28.0498 196.704 28.249 196.599 28.5127C196.499 28.7764 196.449 29.1016 196.449 29.4883V40ZM198.066 30.4902V31.7383H193.654V30.4902H198.066ZM199.578 35.7021V34.7969C199.578 34.0586 199.672 33.4111 199.859 32.8545C200.047 32.292 200.308 31.8232 200.642 31.4482C200.976 31.0732 201.365 30.792 201.811 30.6045C202.256 30.4111 202.733 30.3145 203.243 30.3145C203.765 30.3145 204.248 30.4111 204.693 30.6045C205.139 30.792 205.528 31.0732 205.862 31.4482C206.202 31.8232 206.466 32.292 206.653 32.8545C206.841 33.4111 206.935 34.0586 206.935 34.7969V35.7021C206.935 36.4404 206.841 37.0908 206.653 37.6533C206.466 38.21 206.205 38.6758 205.871 39.0508C205.537 39.4258 205.147 39.707 204.702 39.8945C204.257 40.082 203.776 40.1758 203.261 40.1758C202.745 40.1758 202.265 40.082 201.819 39.8945C201.374 39.707 200.981 39.4258 200.642 39.0508C200.308 38.6758 200.047 38.21 199.859 37.6533C199.672 37.0908 199.578 36.4404 199.578 35.7021ZM201.134 34.7969V35.7021C201.134 36.2236 201.187 36.6807 201.292 37.0732C201.397 37.4658 201.547 37.7939 201.74 38.0576C201.934 38.3213 202.159 38.5205 202.417 38.6553C202.675 38.7842 202.956 38.8486 203.261 38.8486C203.612 38.8486 203.92 38.7842 204.184 38.6553C204.453 38.5205 204.676 38.3213 204.852 38.0576C205.027 37.7939 205.159 37.4658 205.247 37.0732C205.335 36.6807 205.379 36.2236 205.379 35.7021V34.7969C205.379 34.2754 205.326 33.8213 205.221 33.4346C205.115 33.042 204.966 32.7139 204.772 32.4502C204.579 32.1807 204.351 31.9814 204.087 31.8525C203.829 31.7178 203.548 31.6504 203.243 31.6504C202.944 31.6504 202.666 31.7178 202.408 31.8525C202.15 31.9814 201.925 32.1807 201.731 32.4502C201.544 32.7139 201.397 33.042 201.292 33.4346C201.187 33.8213 201.134 34.2754 201.134 34.7969ZM210.494 31.9844V40H208.938V30.4902H210.441L210.494 31.9844ZM212.858 30.4375L212.867 31.9492C212.738 31.9199 212.621 31.9023 212.516 31.8965C212.416 31.8848 212.299 31.8789 212.164 31.8789C211.871 31.8789 211.613 31.9375 211.391 32.0547C211.174 32.1719 210.986 32.3359 210.828 32.5469C210.67 32.7578 210.544 33.0098 210.45 33.3027C210.356 33.5898 210.292 33.9062 210.257 34.252L209.853 34.5156C209.853 33.9414 209.896 33.4023 209.984 32.8984C210.078 32.3945 210.222 31.9492 210.415 31.5625C210.608 31.1699 210.854 30.8652 211.153 30.6484C211.458 30.4258 211.821 30.3145 212.243 30.3145C212.337 30.3145 212.451 30.3291 212.586 30.3584C212.727 30.3818 212.817 30.4082 212.858 30.4375ZM215.979 32.3799V40H214.432V30.4902H215.891L215.979 32.3799ZM215.662 34.8848L214.941 34.8584C214.936 34.208 215 33.6074 215.135 33.0566C215.27 32.5 215.472 32.0166 215.741 31.6064C216.017 31.1963 216.359 30.8799 216.77 30.6572C217.186 30.4287 217.669 30.3145 218.22 30.3145C218.583 30.3145 218.92 30.3789 219.23 30.5078C219.547 30.6309 219.822 30.8271 220.057 31.0967C220.291 31.3662 220.473 31.7119 220.602 32.1338C220.736 32.5557 220.804 33.0654 220.804 33.6631V40H219.248V33.7422C219.248 33.2441 219.181 32.8457 219.046 32.5469C218.917 32.248 218.732 32.0312 218.492 31.8965C218.252 31.7559 217.965 31.6855 217.631 31.6855C217.25 31.6855 216.931 31.7705 216.673 31.9404C216.421 32.1104 216.219 32.3447 216.066 32.6436C215.92 32.9424 215.814 33.2852 215.75 33.6719C215.691 34.0527 215.662 34.457 215.662 34.8848ZM220.786 33.9883L219.749 34.3223C219.743 33.8008 219.808 33.2998 219.942 32.8193C220.077 32.3389 220.276 31.9111 220.54 31.5361C220.81 31.1611 221.144 30.8652 221.542 30.6484C221.94 30.4258 222.403 30.3145 222.931 30.3145C223.364 30.3145 223.748 30.3818 224.082 30.5166C224.416 30.6514 224.697 30.8594 224.926 31.1406C225.16 31.416 225.336 31.7705 225.453 32.2041C225.57 32.6377 225.629 33.1533 225.629 33.751V40H224.073V33.7334C224.073 33.2002 224.006 32.7871 223.871 32.4941C223.742 32.1953 223.558 31.9873 223.317 31.8701C223.077 31.7471 222.79 31.6855 222.456 31.6855C222.187 31.6855 221.946 31.7471 221.735 31.8701C221.53 31.9932 221.357 32.1631 221.217 32.3799C221.076 32.5908 220.968 32.834 220.892 33.1094C220.821 33.3848 220.786 33.6777 220.786 33.9883ZM232.634 38.374V33.2148C232.634 32.8398 232.575 32.5381 232.458 32.3096C232.347 32.0811 232.177 31.9141 231.948 31.8086C231.726 31.7031 231.444 31.6504 231.104 31.6504C230.776 31.6504 230.492 31.7178 230.252 31.8525C230.018 31.9873 229.836 32.166 229.707 32.3887C229.584 32.6113 229.522 32.8574 229.522 33.127H227.967C227.967 32.7871 228.04 32.4502 228.187 32.1162C228.339 31.7822 228.556 31.4805 228.837 31.2109C229.118 30.9355 229.455 30.7188 229.848 30.5605C230.246 30.3965 230.691 30.3145 231.184 30.3145C231.77 30.3145 232.288 30.4111 232.739 30.6045C233.19 30.792 233.545 31.0996 233.803 31.5273C234.061 31.9551 234.189 32.5234 234.189 33.2324V37.9258C234.189 38.2422 234.213 38.5791 234.26 38.9365C234.312 39.2939 234.386 39.6016 234.479 39.8594V40H232.871C232.795 39.8125 232.736 39.5635 232.695 39.2529C232.654 38.9365 232.634 38.6436 232.634 38.374ZM232.88 34.2344L232.897 35.377H231.816C231.447 35.377 231.11 35.418 230.806 35.5C230.507 35.582 230.249 35.7021 230.032 35.8604C229.815 36.0127 229.648 36.2031 229.531 36.4316C229.42 36.6602 229.364 36.9209 229.364 37.2139C229.364 37.5947 229.417 37.8994 229.522 38.1279C229.628 38.3506 229.786 38.5117 229.997 38.6113C230.208 38.7109 230.475 38.7607 230.797 38.7607C231.189 38.7607 231.535 38.6699 231.834 38.4883C232.133 38.3066 232.364 38.0869 232.528 37.8291C232.698 37.5713 232.777 37.3311 232.766 37.1084L233.108 37.8379C233.085 38.0664 233.009 38.3154 232.88 38.585C232.757 38.8486 232.584 39.1035 232.361 39.3496C232.139 39.5898 231.875 39.7891 231.57 39.9473C231.271 40.0996 230.935 40.1758 230.56 40.1758C230.009 40.1758 229.525 40.0703 229.109 39.8594C228.699 39.6484 228.38 39.3379 228.151 38.9277C227.923 38.5176 227.809 38.0107 227.809 37.4072C227.809 36.9502 227.888 36.5283 228.046 36.1416C228.204 35.7549 228.438 35.4209 228.749 35.1396C229.06 34.8525 229.449 34.6299 229.918 34.4717C230.393 34.3135 230.94 34.2344 231.562 34.2344H232.88ZM239.902 38.8486C240.213 38.8486 240.494 38.7871 240.746 38.6641C241.004 38.5352 241.215 38.3359 241.379 38.0664C241.543 37.791 241.637 37.4336 241.66 36.9941H243.119C243.096 37.627 242.935 38.1836 242.636 38.6641C242.343 39.1387 241.956 39.5107 241.476 39.7803C241.001 40.0439 240.477 40.1758 239.902 40.1758C239.287 40.1758 238.751 40.0762 238.294 39.877C237.843 39.6777 237.468 39.3906 237.169 39.0156C236.876 38.6348 236.656 38.1748 236.51 37.6357C236.363 37.0908 236.29 36.4727 236.29 35.7812V34.709C236.29 34.0176 236.363 33.4023 236.51 32.8633C236.656 32.3184 236.876 31.8584 237.169 31.4834C237.468 31.1025 237.843 30.8125 238.294 30.6133C238.751 30.4141 239.287 30.3145 239.902 30.3145C240.547 30.3145 241.104 30.4521 241.572 30.7275C242.047 30.9971 242.416 31.3896 242.68 31.9053C242.949 32.415 243.096 33.0332 243.119 33.7598H241.66C241.637 33.291 241.552 32.9014 241.405 32.5908C241.259 32.2744 241.06 32.04 240.808 31.8877C240.556 31.7295 240.254 31.6504 239.902 31.6504C239.492 31.6504 239.152 31.7236 238.883 31.8701C238.619 32.0107 238.411 32.2158 238.259 32.4854C238.106 32.7549 237.998 33.0771 237.934 33.4521C237.875 33.8271 237.846 34.2461 237.846 34.709V35.7812C237.846 36.2441 237.875 36.666 237.934 37.0469C237.998 37.4219 238.104 37.7441 238.25 38.0137C238.402 38.2832 238.613 38.4912 238.883 38.6377C239.152 38.7783 239.492 38.8486 239.902 38.8486ZM239.023 40.0879H240.113L240.025 40.5537C240.301 40.6123 240.55 40.7529 240.772 40.9756C241.001 41.1982 241.115 41.5645 241.115 42.0742C241.115 42.3496 241.068 42.5986 240.975 42.8213C240.881 43.0498 240.737 43.2432 240.544 43.4014C240.356 43.5654 240.122 43.6914 239.841 43.7793C239.56 43.8672 239.231 43.9111 238.856 43.9111L238.804 42.9707C239.026 42.9707 239.22 42.9414 239.384 42.8828C239.554 42.8242 239.686 42.7305 239.779 42.6016C239.879 42.4727 239.929 42.3057 239.929 42.1006C239.929 41.9072 239.888 41.7549 239.806 41.6436C239.729 41.5322 239.606 41.4473 239.437 41.3887C239.272 41.3359 239.053 41.2979 238.777 41.2744L239.023 40.0879ZM249.579 38.374V33.2148C249.579 32.8398 249.521 32.5381 249.403 32.3096C249.292 32.0811 249.122 31.9141 248.894 31.8086C248.671 31.7031 248.39 31.6504 248.05 31.6504C247.722 31.6504 247.438 31.7178 247.197 31.8525C246.963 31.9873 246.781 32.166 246.652 32.3887C246.529 32.6113 246.468 32.8574 246.468 33.127H244.912C244.912 32.7871 244.985 32.4502 245.132 32.1162C245.284 31.7822 245.501 31.4805 245.782 31.2109C246.063 30.9355 246.4 30.7188 246.793 30.5605C247.191 30.3965 247.637 30.3145 248.129 30.3145C248.715 30.3145 249.233 30.4111 249.685 30.6045C250.136 30.792 250.49 31.0996 250.748 31.5273C251.006 31.9551 251.135 32.5234 251.135 33.2324V37.9258C251.135 38.2422 251.158 38.5791 251.205 38.9365C251.258 39.2939 251.331 39.6016 251.425 39.8594V40H249.816C249.74 39.8125 249.682 39.5635 249.641 39.2529C249.6 38.9365 249.579 38.6436 249.579 38.374ZM249.825 34.2344L249.843 35.377H248.762C248.393 35.377 248.056 35.418 247.751 35.5C247.452 35.582 247.194 35.7021 246.978 35.8604C246.761 36.0127 246.594 36.2031 246.477 36.4316C246.365 36.6602 246.31 36.9209 246.31 37.2139C246.31 37.5947 246.362 37.8994 246.468 38.1279C246.573 38.3506 246.731 38.5117 246.942 38.6113C247.153 38.7109 247.42 38.7607 247.742 38.7607C248.135 38.7607 248.48 38.6699 248.779 38.4883C249.078 38.3066 249.31 38.0869 249.474 37.8291C249.644 37.5713 249.723 37.3311 249.711 37.1084L250.054 37.8379C250.03 38.0664 249.954 38.3154 249.825 38.585C249.702 38.8486 249.529 39.1035 249.307 39.3496C249.084 39.5898 248.82 39.7891 248.516 39.9473C248.217 40.0996 247.88 40.1758 247.505 40.1758C246.954 40.1758 246.471 40.0703 246.055 39.8594C245.645 39.6484 245.325 39.3379 245.097 38.9277C244.868 38.5176 244.754 38.0107 244.754 37.4072C244.754 36.9502 244.833 36.5283 244.991 36.1416C245.149 35.7549 245.384 35.4209 245.694 35.1396C246.005 34.8525 246.395 34.6299 246.863 34.4717C247.338 34.3135 247.886 34.2344 248.507 34.2344H249.825ZM249.869 26.6758L250.88 26.7725C250.88 27.2002 250.807 27.5752 250.66 27.8975C250.514 28.2197 250.314 28.4688 250.062 28.6445C249.816 28.8203 249.541 28.9082 249.236 28.9082C248.99 28.9082 248.785 28.8672 248.621 28.7852C248.457 28.6973 248.311 28.6006 248.182 28.4951C248.059 28.3838 247.927 28.2871 247.786 28.2051C247.651 28.1172 247.481 28.0732 247.276 28.0732C247.077 28.0732 246.91 28.167 246.775 28.3545C246.641 28.542 246.573 28.7734 246.573 29.0488L245.562 28.9961C245.562 28.5684 245.633 28.1934 245.773 27.8711C245.92 27.543 246.116 27.2881 246.362 27.1064C246.614 26.9189 246.893 26.8252 247.197 26.8252C247.402 26.8252 247.584 26.8691 247.742 26.957C247.9 27.0391 248.05 27.1357 248.19 27.2471C248.331 27.3525 248.478 27.4492 248.63 27.5371C248.788 27.6191 248.964 27.6602 249.157 27.6602C249.356 27.6602 249.523 27.5664 249.658 27.3789C249.799 27.1855 249.869 26.9512 249.869 26.6758ZM253.227 35.7021V34.7969C253.227 34.0586 253.32 33.4111 253.508 32.8545C253.695 32.292 253.956 31.8232 254.29 31.4482C254.624 31.0732 255.014 30.792 255.459 30.6045C255.904 30.4111 256.382 30.3145 256.892 30.3145C257.413 30.3145 257.896 30.4111 258.342 30.6045C258.787 30.792 259.177 31.0732 259.511 31.4482C259.851 31.8232 260.114 32.292 260.302 32.8545C260.489 33.4111 260.583 34.0586 260.583 34.7969V35.7021C260.583 36.4404 260.489 37.0908 260.302 37.6533C260.114 38.21 259.854 38.6758 259.52 39.0508C259.186 39.4258 258.796 39.707 258.351 39.8945C257.905 40.082 257.425 40.1758 256.909 40.1758C256.394 40.1758 255.913 40.082 255.468 39.8945C255.022 39.707 254.63 39.4258 254.29 39.0508C253.956 38.6758 253.695 38.21 253.508 37.6533C253.32 37.0908 253.227 36.4404 253.227 35.7021ZM254.782 34.7969V35.7021C254.782 36.2236 254.835 36.6807 254.94 37.0732C255.046 37.4658 255.195 37.7939 255.389 38.0576C255.582 38.3213 255.808 38.5205 256.065 38.6553C256.323 38.7842 256.604 38.8486 256.909 38.8486C257.261 38.8486 257.568 38.7842 257.832 38.6553C258.102 38.5205 258.324 38.3213 258.5 38.0576C258.676 37.7939 258.808 37.4658 258.896 37.0732C258.983 36.6807 259.027 36.2236 259.027 35.7021V34.7969C259.027 34.2754 258.975 33.8213 258.869 33.4346C258.764 33.042 258.614 32.7139 258.421 32.4502C258.228 32.1807 257.999 31.9814 257.735 31.8525C257.478 31.7178 257.196 31.6504 256.892 31.6504C256.593 31.6504 256.314 31.7178 256.057 31.8525C255.799 31.9814 255.573 32.1807 255.38 32.4502C255.192 32.7139 255.046 33.042 254.94 33.4346C254.835 33.8213 254.782 34.2754 254.782 34.7969Z" fill="#050505"/>
</svg>
