<svg width="917" height="103" viewBox="0 0 917 103" fill="none" xmlns="http://www.w3.org/2000/svg">
<rect width="917" height="103" fill="#E82E24"/>
<path d="M246.844 77V31.3125H254.844V77H246.844ZM296.5 77H286.125L272 43.9062H271.594C272.115 46.4271 272.375 49.1354 272.375 52.0312V77H264.5V31.3125H274.938L288.938 64.0625H289.281C288.885 61.875 288.688 59.2708 288.688 56.25V31.3125H296.5V77ZM313 77H304.562V31.3125H325.031V38.6562H313V51.3438H324.219V58.6875H313V77ZM362.188 54.0938C362.188 61.6562 360.771 67.4688 357.938 71.5312C355.104 75.5938 351.052 77.625 345.781 77.625C340.49 77.625 336.427 75.6042 333.594 71.5625C330.76 67.5 329.344 61.6562 329.344 54.0312C329.344 46.4688 330.76 40.6771 333.594 36.6562C336.427 32.6146 340.51 30.5938 345.844 30.5938C351.115 30.5938 355.156 32.625 357.969 36.6875C360.781 40.7292 362.188 46.5312 362.188 54.0938ZM338.031 54.0938C338.031 59.3021 338.688 63.2708 340 66C341.312 68.7292 343.24 70.0938 345.781 70.0938C350.906 70.0938 353.469 64.7604 353.469 54.0938C353.469 43.4271 350.927 38.0938 345.844 38.0938C343.26 38.0938 341.312 39.4583 340 42.1875C338.688 44.8958 338.031 48.8646 338.031 54.0938ZM377.375 59.2188V77H368.875V31.3125H380C384.708 31.3125 388.177 32.4271 390.406 34.6562C392.656 36.8854 393.781 40.2917 393.781 44.875C393.781 50.6458 391.833 54.6771 387.938 56.9688L396.719 77H387.625L380.406 59.2188H377.375ZM377.375 51.9062H379.562C381.562 51.9062 383 51.3438 383.875 50.2188C384.75 49.0729 385.188 47.375 385.188 45.125C385.188 42.7917 384.719 41.1354 383.781 40.1562C382.865 39.1562 381.438 38.6562 379.5 38.6562H377.375V51.9062ZM417.188 77L408.5 38.0938H408.156C408.552 41.0938 408.75 43.8438 408.75 46.3438V77H400.875V31.3125H413.938L421.75 67.2188H422L429.75 31.3125H443V77H434.938V46.0312C434.938 43.4688 435.083 40.8438 435.375 38.1562H435.125L426.469 77H417.188ZM472.688 77L470.062 65.4688H458.156L455.531 77H447.031L458.344 31.125H469.875L481.219 77H472.688ZM468.469 57.9375L466.031 47.3125C465.885 46.6667 465.552 45.0521 465.031 42.4688C464.531 39.8646 464.229 38.125 464.125 37.25C463.854 39.0417 463.51 41.0208 463.094 43.1875C462.677 45.3333 461.594 50.25 459.844 57.9375H468.469ZM500.406 38.0938C497.969 38.0938 496.042 39.5208 494.625 42.375C493.229 45.2292 492.531 49.1979 492.531 54.2812C492.531 64.8646 495.292 70.1562 500.812 70.1562C503.229 70.1562 505.76 69.3854 508.406 67.8438V75.4062C506.177 76.8854 503.323 77.625 499.844 77.625C494.698 77.625 490.74 75.5833 487.969 71.5C485.219 67.3958 483.844 61.6354 483.844 54.2188C483.844 46.8021 485.26 41.0208 488.094 36.875C490.948 32.7292 494.906 30.6562 499.969 30.6562C501.635 30.6562 503.229 30.8854 504.75 31.3438C506.292 31.8021 507.938 32.6042 509.688 33.75L506.875 40.6562C505.938 40.0104 504.938 39.4271 503.875 38.9062C502.812 38.3646 501.656 38.0938 500.406 38.0938ZM504.562 85.125C504.562 87.3542 503.823 89.1146 502.344 90.4062C500.865 91.7188 498.573 92.375 495.469 92.375C493.948 92.375 492.583 92.1562 491.375 91.7188V86.9062C492.646 87.2604 493.906 87.4375 495.156 87.4375C496.99 87.4375 497.906 86.75 497.906 85.375C497.906 83.625 496.271 82.4792 493 81.9375L495.469 77H500.875L499.719 79.375C501.135 79.7292 502.292 80.3854 503.188 81.3438C504.104 82.3021 504.562 83.5625 504.562 85.125ZM536.5 77L533.875 65.4688H521.969L519.344 77H510.844L522.156 31.125H533.688L545.031 77H536.5ZM532.281 57.9375L529.844 47.3125C529.698 46.6667 529.365 45.0521 528.844 42.4688C528.344 39.8646 528.042 38.125 527.938 37.25C527.667 39.0417 527.323 41.0208 526.906 43.1875C526.49 45.3333 525.406 50.25 523.656 57.9375H532.281ZM524.25 24.3125C523.604 24.3125 523.083 24.5625 522.688 25.0625C522.312 25.5417 522.021 26.4271 521.812 27.7188H517.406C517.635 24.5312 518.344 22.1667 519.531 20.625C520.74 19.0833 522.312 18.3125 524.25 18.3125C525.146 18.3125 525.948 18.4896 526.656 18.8438C527.385 19.1771 528.062 19.5521 528.688 19.9688C529.312 20.3854 529.917 20.7708 530.5 21.125C531.083 21.4583 531.688 21.625 532.312 21.625C533.021 21.625 533.531 21.3542 533.844 20.8125C534.177 20.2708 534.458 19.4167 534.688 18.25H539.094C538.865 21.4167 538.135 23.7812 536.906 25.3438C535.698 26.8854 534.146 27.6562 532.25 27.6562C531.333 27.6562 530.51 27.4896 529.781 27.1562C529.073 26.8021 528.406 26.4167 527.781 26C527.177 25.5625 526.594 25.1771 526.031 24.8438C525.469 24.4896 524.875 24.3125 524.25 24.3125ZM580.5 54.0938C580.5 61.6562 579.083 67.4688 576.25 71.5312C573.417 75.5938 569.365 77.625 564.094 77.625C558.802 77.625 554.74 75.6042 551.906 71.5625C549.073 67.5 547.656 61.6562 547.656 54.0312C547.656 46.4688 549.073 40.6771 551.906 36.6562C554.74 32.6146 558.823 30.5938 564.156 30.5938C569.427 30.5938 573.469 32.625 576.281 36.6875C579.094 40.7292 580.5 46.5312 580.5 54.0938ZM556.344 54.0938C556.344 59.3021 557 63.2708 558.312 66C559.625 68.7292 561.552 70.0938 564.094 70.0938C569.219 70.0938 571.781 64.7604 571.781 54.0938C571.781 43.4271 569.24 38.0938 564.156 38.0938C561.573 38.0938 559.625 39.4583 558.312 42.1875C557 44.8958 556.344 48.8646 556.344 54.0938ZM611.438 77H603V31.3125H623.469V38.6562H611.438V51.3438H622.656V58.6875H611.438V77ZM649.812 77L647.188 65.4688H635.281L632.656 77H624.156L635.469 31.125H647L658.344 77H649.812ZM645.594 57.9375L643.156 47.3125C643.01 46.6667 642.677 45.0521 642.156 42.4688C641.656 39.8646 641.354 38.125 641.25 37.25C640.979 39.0417 640.635 41.0208 640.219 43.1875C639.802 45.3333 638.719 50.25 636.969 57.9375H645.594ZM662.375 77V31.3125H670.875V69.5625H682.656V77H662.375ZM708.938 64.4062C708.938 68.6771 707.854 71.9479 705.688 74.2188C703.542 76.4896 700.438 77.625 696.375 77.625C692.396 77.625 689.01 76.8438 686.219 75.2812V66.875C689.635 69.1042 692.771 70.2188 695.625 70.2188C697.25 70.2188 698.469 69.7708 699.281 68.875C700.115 67.9792 700.531 66.7604 700.531 65.2188C700.531 63.6979 700.042 62.3125 699.062 61.0625C698.083 59.7917 696.469 58.3854 694.219 56.8438C692.26 55.4896 690.771 54.1979 689.75 52.9688C688.75 51.7188 687.969 50.3229 687.406 48.7812C686.865 47.2396 686.594 45.4479 686.594 43.4062C686.594 39.4896 687.677 36.3854 689.844 34.0938C692.031 31.8021 694.958 30.6562 698.625 30.6562C702.125 30.6562 705.49 31.6354 708.719 33.5938L705.906 40.4062C704.906 39.8229 703.854 39.3021 702.75 38.8438C701.667 38.3854 700.5 38.1562 699.25 38.1562C697.875 38.1562 696.812 38.6146 696.062 39.5312C695.333 40.4271 694.969 41.6562 694.969 43.2188C694.969 44.7604 695.406 46.1042 696.281 47.25C697.177 48.3958 698.729 49.6979 700.938 51.1562C703.917 53.1562 705.99 55.1979 707.156 57.2812C708.344 59.3646 708.938 61.7396 708.938 64.4062ZM736.188 77L733.562 65.4688H721.656L719.031 77H710.531L721.844 31.125H733.375L744.719 77H736.188ZM731.969 57.9375L729.531 47.3125C729.385 46.6667 729.052 45.0521 728.531 42.4688C728.031 39.8646 727.729 38.125 727.625 37.25C727.354 39.0417 727.01 41.0208 726.594 43.1875C726.177 45.3333 725.094 50.25 723.344 57.9375H731.969Z" fill="white"/>
<path d="M223.631 65.0178L184.433 26.6867L171.534 39.688L210.171 78.1909L223.631 65.0178Z" fill="white"/>
<path d="M223.631 65.0178L184.433 26.6867L171.534 39.688L210.171 78.1909L223.631 65.0178Z" fill="white"/>
<path d="M171.338 65.9047L209.238 26.2898L222.563 38.8545L185.229 78.6223L171.338 65.9047Z" fill="white"/>
<path d="M171.338 65.9047L209.238 26.2898L222.563 38.8545L185.229 78.6223L171.338 65.9047Z" fill="white"/>
</svg>
