<svg width="163" height="37" viewBox="0 0 163 37" fill="none" xmlns="http://www.w3.org/2000/svg">
<g clip-path="url(#clip0_5_3807)">
<path d="M17.2654 31.0464H6.88181C6.41501 31.0464 6.03662 31.4263 6.03662 31.8949C6.03662 32.3635 6.41501 32.7434 6.88181 32.7434H17.2654C17.7321 32.7434 18.1105 32.3635 18.1105 31.8949C18.1105 31.4263 17.7321 31.0464 17.2654 31.0464Z" fill="white"/>
<path d="M12.0011 33.7788H7.49326C7.3476 33.7788 9.38379 36.3243 10.4016 36.3243H12.0011H12.1467H13.7462C14.764 36.3243 16.8002 33.7788 16.6545 33.7788H12.1467H12.0011Z" fill="white"/>
<path fill-rule="evenodd" clip-rule="evenodd" d="M12.0739 0.5C5.40567 0.5 0 5.49283 0 11.6517C0 13.9033 0.722485 15.9991 1.96497 17.7519C3.55183 20.3697 5.66124 22.6048 5.66124 22.6048C6.54675 23.527 7.27122 25.2246 7.27122 26.3774V27.9386H11.4078V23.8196L10.0291 22.4354V20.7496L9.31132 20.0289L9.32213 20.0182C8.83406 20.0182 8.43839 19.621 8.43839 19.131C8.43839 18.6409 8.83406 18.2437 9.32213 18.2437C9.81031 18.2437 10.206 18.6409 10.206 19.131C10.206 19.4158 10.0724 19.6692 9.86462 19.8315L10.5594 20.5291V22.2149L11.4078 23.0667V18.5312L9.44209 16.5578H8.47004L7.82943 15.9149C7.75433 15.9406 7.67373 15.9546 7.58992 15.9546C7.17983 15.9546 6.84746 15.6208 6.84746 15.2092C6.84746 14.9118 7.02085 14.6553 7.27181 14.5355V14.2859L7.00661 14.0197V13.8783H5.89358L5.07959 13.0611C4.9746 13.1184 4.85431 13.1507 4.72637 13.1507C4.31646 13.1507 3.98409 12.817 3.98409 12.4055C3.98409 11.9938 4.31646 11.6602 4.72637 11.6602C5.13644 11.6602 5.4688 11.9938 5.4688 12.4055C5.4688 12.5338 5.43656 12.6546 5.37957 12.7599L6.06919 13.4525H7.00661V13.31L6.45109 12.7521C6.44192 12.7529 6.43263 12.7533 6.42334 12.7533C6.22805 12.7533 6.06978 12.5944 6.06978 12.3984C6.06978 12.2024 6.22805 12.0435 6.42334 12.0435C6.61858 12.0435 6.77685 12.2024 6.77685 12.3984C6.77685 12.4228 6.77428 12.4468 6.76967 12.4698L7.43078 13.1335V13.8433L7.69598 14.1096V14.4714C8.0558 14.5232 8.33221 14.8337 8.33221 15.2092C8.33221 15.3411 8.29817 15.4649 8.2383 15.5724L8.68963 16.0255H9.66185L11.4078 17.7784V16.8186L9.62266 15.0265V12.7195L8.80013 11.8938C8.70312 11.9264 8.59934 11.9441 8.49136 11.9441C7.95441 11.9441 7.51914 11.5071 7.51914 10.9681C7.51914 10.429 7.95441 9.99204 8.49136 9.99204C9.02831 9.99204 9.46352 10.429 9.46352 10.9681C9.46352 11.1246 9.42678 11.2724 9.36172 11.4035L10.365 12.4108V14.7178L11.4078 15.7646V8.72793C10.7353 8.54154 10.2412 7.9228 10.2412 7.18832C10.2412 6.30624 10.9535 5.5913 11.8321 5.5913C12.7107 5.5913 13.4229 6.30624 13.4229 7.18832C13.4229 7.84318 13.0302 8.40605 12.4684 8.65253V14.4687L13.3698 13.5637V12.6295C13.1547 12.5616 12.9987 12.3599 12.9987 12.1215C12.9987 11.8276 13.2362 11.5892 13.5289 11.5892C13.8218 11.5892 14.0593 11.8276 14.0593 12.1215C14.0593 12.3599 13.9031 12.5616 13.6879 12.6295V13.6961L12.4684 14.9205V20.822L13.9531 19.3315V16.4035L14.559 15.7951C14.4446 15.6352 14.3774 15.439 14.3774 15.227C14.3774 14.8267 14.6174 14.4827 14.9607 14.3321V11.5456L15.9431 10.5593C15.7601 10.3381 15.65 10.0538 15.65 9.74362C15.65 9.03798 16.2198 8.46597 16.9227 8.46597C17.6255 8.46597 18.1953 9.03798 18.1953 9.74362C18.1953 10.4492 17.6255 11.0213 16.9227 11.0213C16.762 11.0213 16.6085 10.9914 16.4669 10.937L15.5971 11.8101V14.2829C15.8036 14.3374 15.9833 14.4583 16.1121 14.6216L16.6575 14.0741V13.6304L17.3165 12.9688C17.3134 12.9496 17.3116 12.9297 17.3116 12.9093C17.3116 12.7134 17.47 12.5544 17.6651 12.5544C17.8604 12.5544 18.0187 12.7134 18.0187 12.9093C18.0187 13.1054 17.8604 13.2642 17.6651 13.2642C17.6513 13.2642 17.6378 13.2635 17.6244 13.262L17.0818 13.8067V13.9492H18.0191L18.6892 13.2764C18.6444 13.1727 18.6195 13.0581 18.6195 12.9378C18.6195 12.4674 18.9994 12.086 19.468 12.086C19.9365 12.086 20.3164 12.4674 20.3164 12.9378C20.3164 13.4082 19.9365 13.7896 19.468 13.7896C19.2742 13.7896 19.0954 13.7243 18.9526 13.6145L18.1949 14.3752H16.9575L16.3025 15.0328C16.3151 15.0955 16.3217 15.1604 16.3217 15.227C16.3217 15.7659 15.8864 16.2029 15.3494 16.2029C15.2973 16.2029 15.2461 16.1988 15.196 16.1908L15.2055 16.2002L14.6955 16.7121V18.5808H15.5001L15.89 18.1893C15.8068 18.0952 15.7561 17.9713 15.7561 17.8355C15.7561 17.5415 15.9935 17.3031 16.2863 17.3031C16.5792 17.3031 16.8166 17.5415 16.8166 17.8355C16.8166 18.1296 16.5792 18.3679 16.2863 18.3679C16.206 18.3679 16.13 18.35 16.0619 18.3181L15.588 18.7937H14.6955V19.6401L12.4684 21.876V24.1174H12.756L13.3512 23.5199C13.264 23.425 13.2108 23.2984 13.2108 23.1591C13.2108 22.8652 13.4482 22.6268 13.7412 22.6268C14.0339 22.6268 14.2713 22.8652 14.2713 23.1591C14.2713 23.4532 14.0339 23.6916 13.7412 23.6916C13.7065 23.6916 13.6726 23.6882 13.6398 23.6818L12.8877 24.4368H12.4684V27.9386H12.6227H16.8766V26.3774C16.8766 25.2246 17.6011 23.527 18.4866 22.6048C18.4866 22.6048 20.596 20.3697 22.1828 17.7519C23.4253 15.9991 24.1478 13.9033 24.1478 11.6517C24.1478 5.49283 18.7421 0.5 12.0739 0.5ZM12.7867 7.18832C12.7867 7.71759 12.3592 8.1466 11.8321 8.1466C11.3049 8.1466 10.8776 7.71759 10.8776 7.18832C10.8776 6.65905 11.3049 6.23004 11.8321 6.23004C12.3592 6.23004 12.7867 6.65905 12.7867 7.18832ZM8.93317 10.9681C8.93317 11.2131 8.73536 11.4117 8.49136 11.4117C8.2473 11.4117 8.04949 11.2131 8.04949 10.9681C8.04949 10.7231 8.2473 10.5245 8.49136 10.5245C8.73536 10.5245 8.93317 10.7231 8.93317 10.9681ZM15.3494 15.6706C15.5935 15.6706 15.7913 15.472 15.7913 15.227C15.7913 14.9819 15.5935 14.7833 15.3494 14.7833C15.1054 14.7833 14.9076 14.9819 14.9076 15.227C14.9076 15.472 15.1054 15.6706 15.3494 15.6706ZM17.6651 9.74362C17.6651 10.1553 17.3327 10.4889 16.9227 10.4889C16.5128 10.4889 16.1804 10.1553 16.1804 9.74362C16.1804 9.33208 16.5128 8.9984 16.9227 8.9984C17.3327 8.9984 17.6651 9.33208 17.6651 9.74362ZM9.32213 19.5924C9.57606 19.5924 9.78169 19.3858 9.78169 19.131C9.78169 18.8761 9.57606 18.6695 9.32213 18.6695C9.06831 18.6695 8.86256 18.8761 8.86256 19.131C8.86256 19.3858 9.06831 19.5924 9.32213 19.5924ZM8.0141 15.2092C8.0141 15.4445 7.82417 15.6351 7.58992 15.6351C7.35562 15.6351 7.16558 15.4445 7.16558 15.2092C7.16558 14.9741 7.35562 14.7833 7.58992 14.7833C7.82417 14.7833 8.0141 14.9741 8.0141 15.2092ZM19.468 13.4703C19.7608 13.4703 19.9983 13.2319 19.9983 12.9378C19.9983 12.6438 19.7608 12.4055 19.468 12.4055C19.175 12.4055 18.9377 12.6438 18.9377 12.9378C18.9377 13.2319 19.175 13.4703 19.468 13.4703ZM17.8065 12.9093C17.8065 12.9878 17.7432 13.0513 17.6651 13.0513C17.5871 13.0513 17.5237 12.9878 17.5237 12.9093C17.5237 12.8311 17.5871 12.7675 17.6651 12.7675C17.7432 12.7675 17.8065 12.8311 17.8065 12.9093ZM13.5289 12.3344C13.6461 12.3344 13.741 12.2391 13.741 12.1215C13.741 12.0039 13.6461 11.9086 13.5289 11.9086C13.4118 11.9086 13.3168 12.0039 13.3168 12.1215C13.3168 12.2391 13.4118 12.3344 13.5289 12.3344ZM14.0593 23.1591C14.0593 23.3356 13.9168 23.4785 13.7412 23.4785C13.5654 23.4785 13.4229 23.3356 13.4229 23.1591C13.4229 22.9828 13.5654 22.8398 13.7412 22.8398C13.9168 22.8398 14.0593 22.9828 14.0593 23.1591ZM16.2863 18.155C16.4621 18.155 16.6046 18.0119 16.6046 17.8355C16.6046 17.6592 16.4621 17.5161 16.2863 17.5161C16.1107 17.5161 15.9682 17.6592 15.9682 17.8355C15.9682 18.0119 16.1107 18.155 16.2863 18.155ZM6.28189 12.3984C6.28189 12.4767 6.3452 12.5403 6.42334 12.5403C6.50149 12.5403 6.56474 12.4767 6.56474 12.3984C6.56474 12.32 6.50149 12.2564 6.42334 12.2564C6.3452 12.2564 6.28189 12.32 6.28189 12.3984ZM4.72637 12.8313C4.49209 12.8313 4.30221 12.6407 4.30221 12.4055C4.30221 12.1703 4.49209 11.9795 4.72637 11.9795C4.96065 11.9795 5.15068 12.1703 5.15068 12.4055C5.15068 12.6407 4.96065 12.8313 4.72637 12.8313Z" fill="white"/>
<path d="M16.5411 28.3794H7.60642C7.13968 28.3794 6.76123 28.7593 6.76123 29.2279C6.76123 29.6965 7.13968 30.0764 7.60642 30.0764H16.5411C17.0079 30.0764 17.3863 29.6965 17.3863 29.2279C17.3863 28.7593 17.0079 28.3794 16.5411 28.3794Z" fill="white"/>
<path d="M135.742 16.6626H141.279V19.2361H135.742V16.6626Z" fill="white"/>
<path d="M148.973 18.7724C148.973 19.6097 148.867 20.3712 148.655 21.0575C148.45 21.7438 148.135 22.3339 147.711 22.828C147.294 23.3153 146.768 23.6961 146.132 23.9707C145.497 24.2382 144.749 24.3721 143.887 24.3721C143.498 24.3721 143.111 24.3515 142.728 24.3103C142.352 24.2691 141.959 24.2005 141.549 24.1044L141.734 22.0766C141.754 21.8983 141.826 21.7542 141.949 21.6442C142.072 21.5344 142.247 21.4795 142.472 21.4795C142.588 21.4795 142.732 21.5001 142.902 21.5414C143.074 21.5756 143.279 21.5928 143.518 21.5928C143.853 21.5928 144.144 21.5483 144.389 21.4591C144.642 21.363 144.851 21.2085 145.015 20.9958C145.179 20.7761 145.302 20.4914 145.384 20.1415C145.466 19.7915 145.507 19.3591 145.507 18.8444V9.20972H148.973V18.7724Z" fill="white"/>
<path d="M156.991 16.5695C157.894 16.5695 158.543 16.3534 158.94 15.921C159.336 15.4888 159.534 14.8848 159.534 14.1093C159.534 13.7663 159.483 13.454 159.381 13.1726C159.278 12.8912 159.121 12.6511 158.909 12.4521C158.704 12.2462 158.441 12.0884 158.12 11.9787C157.805 11.8689 157.429 11.814 156.991 11.814H155.187V16.5695H156.991ZM156.991 9.20972C158.044 9.20972 158.947 9.33666 159.698 9.59047C160.458 9.83761 161.08 10.1807 161.564 10.6198C162.057 11.0591 162.419 11.5773 162.651 12.1741C162.884 12.7713 163 13.4163 163 14.1093C163 14.8574 162.881 15.5437 162.641 16.1681C162.402 16.7925 162.036 17.3278 161.544 17.7739C161.052 18.22 160.427 18.57 159.667 18.8238C158.916 19.071 158.024 19.1944 156.991 19.1944H155.187V24.2075H151.721V9.20972H156.991Z" fill="white"/>
<path d="M37.4548 2.93798C37.4548 4.2644 36.3836 5.33982 35.0624 5.33982C33.7411 5.33982 32.6699 4.2644 32.6699 2.93798C32.6699 1.61135 33.7411 0.536133 35.0624 0.536133C36.3836 0.536133 37.4548 1.61135 37.4548 2.93798Z" fill="white"/>
<path d="M32.9897 7.26929V24.212H37.0569V7.30646C36.4497 7.58619 35.7742 7.74233 35.0624 7.74233C34.3199 7.74233 33.6168 7.57236 32.9897 7.26929Z" fill="white"/>
<path d="M53.2203 24.2116V9.21387H50.1648V17.1502C50.1648 17.3903 50.1715 17.6477 50.1853 17.9221C50.199 18.1899 50.223 18.4678 50.2571 18.7559L43.1516 9.74912C43.0558 9.63238 42.9705 9.53974 42.8953 9.4712C42.82 9.40266 42.7414 9.35101 42.6595 9.31671C42.5774 9.27549 42.485 9.24817 42.3826 9.23451C42.28 9.22061 42.1536 9.21387 42.0031 9.21387H40.1782V24.2116H43.2337V16.1723C43.2337 15.9527 43.2268 15.7194 43.2131 15.4724C43.2063 15.2185 43.1892 14.9577 43.1617 14.69L50.2058 23.6351C50.3835 23.8477 50.5612 23.9988 50.7391 24.088C50.9236 24.1704 51.149 24.2116 51.4157 24.2116H53.2203Z" fill="white"/>
<path fill-rule="evenodd" clip-rule="evenodd" d="M70.7802 16.7072C70.7802 17.7914 70.5922 18.8003 70.216 19.7334C69.8469 20.6669 69.3242 21.48 68.6474 22.1731C67.9711 22.8593 67.154 23.3981 66.1968 23.7892C65.2466 24.1802 64.1907 24.3759 63.0291 24.3759C61.8669 24.3759 60.8075 24.1802 59.8503 23.7892C58.8931 23.3981 58.0731 22.8593 57.3895 22.1731C56.7129 21.48 56.1864 20.6669 55.8105 19.7334C55.4414 18.8003 55.2568 17.7914 55.2568 16.7072C55.2568 15.623 55.4414 14.6141 55.8105 13.6809C56.1864 12.7475 56.7129 11.9377 57.3895 11.2515C58.0731 10.5654 58.8931 10.0267 59.8503 9.6355C60.8075 9.24431 61.8669 9.04883 63.0291 9.04883C64.1907 9.04883 65.2466 9.24777 66.1968 9.6457C67.154 10.0369 67.9711 10.5756 68.6474 11.2619C69.3242 11.9482 69.8469 12.7579 70.216 13.6911C70.5922 14.6245 70.7802 15.6297 70.7802 16.7072ZM67.2329 16.7072C67.2329 15.966 67.1371 15.3003 66.9455 14.7102C66.754 14.1131 66.4771 13.6089 66.1151 13.197C65.7594 12.7853 65.322 12.4695 64.8028 12.25C64.283 12.0304 63.692 11.9206 63.0291 11.9206C62.3586 11.9206 61.7606 12.0304 61.2344 12.25C60.7152 12.4695 60.2743 12.7853 59.9116 13.197C59.5565 13.6089 59.2832 14.1131 59.0916 14.7102C58.9001 15.3003 58.8043 15.966 58.8043 16.7072C58.8043 17.4552 58.9001 18.1276 59.0916 18.7247C59.2832 19.3149 59.5565 19.8159 59.9116 20.2275C60.2743 20.6393 60.7152 20.955 61.2344 21.1746C61.7606 21.3874 62.3586 21.4937 63.0291 21.4937C63.692 21.4937 64.283 21.3874 64.8028 21.1746C65.322 20.955 65.7594 20.6393 66.1151 20.2275C66.4771 19.8159 66.754 19.3149 66.9455 18.7247C67.1371 18.1276 67.2329 17.4552 67.2329 16.7072Z" fill="white"/>
<path d="M79.6921 24.2116L85.6801 9.21387H82.8709C82.5836 9.21387 82.3412 9.29284 82.1427 9.45056C81.9517 9.6016 81.8185 9.77304 81.7432 9.96524L78.8721 17.9942C78.7355 18.3441 78.6058 18.7286 78.4826 19.1471C78.3664 19.5589 78.2601 19.9911 78.1649 20.4442C78.0487 19.9911 77.9254 19.5589 77.7958 19.1471C77.6656 18.7286 77.5324 18.3441 77.3957 17.9942L74.5043 9.96524C74.4085 9.74566 74.2683 9.5673 74.0838 9.42998C73.8992 9.28593 73.6568 9.21387 73.3561 9.21387H70.5674L76.5548 24.2116H79.6921Z" fill="white"/>
<path fill-rule="evenodd" clip-rule="evenodd" d="M99.0176 24.2116H96.3317C96.0303 24.2116 95.7879 24.1428 95.6034 24.0057C95.4188 23.8616 95.2787 23.6798 95.1829 23.46L94.301 20.8456H88.6208L87.739 23.46C87.6642 23.6523 87.527 23.8273 87.329 23.9851C87.138 24.1361 86.8986 24.2116 86.6112 24.2116H83.9043L89.6873 9.21387H93.2346L99.0176 24.2116ZM93.5114 18.478L92.1273 14.371C92.0251 14.1102 91.9159 13.8047 91.7997 13.4548C91.6834 13.0978 91.5672 12.7136 91.451 12.302C91.3482 12.7205 91.239 13.1083 91.1228 13.4651C91.0066 13.8219 90.8974 14.1308 90.7946 14.3914L89.4209 18.478H93.5114Z" fill="white"/>
<path d="M105.265 11.9724H109.469V9.21387H97.5957V11.9724H101.799V24.2116H105.265V11.9724Z" fill="white"/>
<path d="M114.716 11.8902V15.3899H119.412V17.9633H114.716V21.5353H120.847V24.2116H111.229V9.21387H120.847V11.8902H114.716Z" fill="white"/>
<path d="M132.999 20.382C132.917 20.3477 132.835 20.3305 132.753 20.3305C132.651 20.3305 132.552 20.3546 132.456 20.4025C132.36 20.4438 132.271 20.4987 132.189 20.5672C131.984 20.7525 131.782 20.907 131.584 21.0305C131.386 21.1472 131.174 21.2431 130.948 21.3186C130.723 21.3874 130.481 21.4388 130.221 21.4731C129.961 21.5004 129.673 21.5143 129.359 21.5143C128.813 21.5143 128.3 21.408 127.822 21.1951C127.343 20.9825 126.923 20.6735 126.56 20.2687C126.205 19.8569 125.921 19.3526 125.709 18.7556C125.504 18.1585 125.402 17.4756 125.402 16.7072C125.402 15.9454 125.494 15.2695 125.678 14.6794C125.87 14.0823 126.137 13.5813 126.478 13.1765C126.827 12.7646 127.237 12.4524 127.709 12.2398C128.187 12.0269 128.713 11.9206 129.287 11.9206C129.65 11.9206 129.964 11.9482 130.231 12.0031C130.505 12.0579 130.74 12.1265 130.938 12.209C131.143 12.2845 131.317 12.3702 131.461 12.4663C131.612 12.5555 131.748 12.6411 131.872 12.7236C131.994 12.7991 132.111 12.8642 132.22 12.9191C132.33 12.974 132.446 13.0016 132.568 13.0016C132.753 13.0016 132.897 12.9638 132.999 12.8883C133.102 12.8058 133.19 12.7167 133.266 12.6206L134.435 11.0458C134.155 10.7574 133.833 10.4899 133.471 10.2428C133.109 9.99568 132.712 9.78654 132.282 9.61486C131.851 9.43656 131.386 9.29919 130.887 9.20309C130.395 9.10025 129.869 9.04883 129.308 9.04883C128.208 9.04883 127.2 9.23739 126.283 9.61486C125.367 9.99239 124.581 10.5207 123.925 11.2001C123.269 11.8794 122.76 12.6893 122.398 13.6294C122.035 14.5626 121.854 15.5887 121.854 16.7072C121.854 17.8052 122.022 18.8241 122.356 19.7643C122.691 20.6976 123.17 21.5073 123.792 22.1936C124.421 22.873 125.183 23.4083 126.078 23.7994C126.981 24.1837 127.999 24.3759 129.134 24.3759C130.371 24.3759 131.441 24.177 132.343 23.7788C133.252 23.374 134.007 22.7768 134.609 21.9877L133.235 20.5365C133.16 20.4609 133.081 20.4095 132.999 20.382Z" fill="white"/>
<path d="M123.24 32.9922C123.148 32.8735 123.047 32.7905 122.937 32.7434C122.827 32.6963 122.707 32.6727 122.579 32.6727C122.322 32.6727 122.121 32.7679 121.976 32.9584C121.831 33.1469 121.759 33.4265 121.759 33.7971C121.759 33.9898 121.775 34.1546 121.808 34.2919C121.841 34.427 121.887 34.5376 121.949 34.6237C122.009 34.7096 122.084 34.7721 122.172 34.8111C122.259 34.8499 122.359 34.8694 122.468 34.8694C122.636 34.8694 122.78 34.8335 122.9 34.7619C123.023 34.6882 123.136 34.5847 123.24 34.4515V32.9922ZM123.898 30.8079V35.3549H123.5C123.412 35.3549 123.356 35.3128 123.332 35.2289L123.274 34.8879C123.143 35.0414 122.994 35.1654 122.827 35.2595C122.661 35.3539 122.468 35.401 122.248 35.401C122.073 35.401 121.914 35.3661 121.771 35.2964C121.628 35.2248 121.505 35.1214 121.404 34.9862C121.302 34.8511 121.222 34.6841 121.165 34.4855C121.11 34.2847 121.083 34.0552 121.083 33.7971C121.083 33.5637 121.113 33.3476 121.174 33.1489C121.237 32.9503 121.327 32.7781 121.443 32.6328C121.56 32.4853 121.7 32.3706 121.866 32.2886C122.033 32.2046 122.22 32.1627 122.426 32.1627C122.609 32.1627 122.766 32.1925 122.894 32.2518C123.023 32.3091 123.138 32.3901 123.24 32.4946V30.8079H123.898ZM126.75 33.4346C126.75 33.324 126.733 33.2217 126.701 33.1273C126.67 33.0312 126.624 32.9482 126.563 32.8785C126.502 32.8069 126.425 32.7515 126.333 32.7127C126.243 32.6718 126.14 32.6511 126.022 32.6511C125.783 32.6511 125.595 32.7198 125.458 32.8571C125.321 32.9943 125.235 33.1868 125.198 33.4346H126.75ZM125.18 33.8402C125.188 34.0184 125.216 34.173 125.262 34.3041C125.309 34.4332 125.372 34.5407 125.449 34.6268C125.529 34.7127 125.623 34.7773 125.731 34.8202C125.841 34.8613 125.963 34.8818 126.098 34.8818C126.227 34.8818 126.338 34.8673 126.432 34.8387C126.526 34.808 126.607 34.7752 126.676 34.7405C126.746 34.7036 126.805 34.6708 126.854 34.642C126.903 34.6114 126.948 34.5961 126.988 34.5961C127.041 34.5961 127.082 34.6165 127.111 34.6575L127.298 34.9001C127.22 34.9924 127.132 35.0702 127.034 35.1337C126.937 35.1972 126.832 35.2493 126.722 35.2904C126.612 35.3293 126.499 35.357 126.383 35.3732C126.266 35.3918 126.153 35.401 126.043 35.401C125.827 35.401 125.626 35.3651 125.44 35.2935C125.257 35.2197 125.096 35.1122 124.959 34.9708C124.825 34.8295 124.719 34.6544 124.641 34.4455C124.566 34.2365 124.528 33.9959 124.528 33.7234C124.528 33.5063 124.562 33.3036 124.629 33.1151C124.698 32.9268 124.796 32.7629 124.923 32.6235C125.052 32.4843 125.206 32.3747 125.388 32.2948C125.571 32.2129 125.779 32.1719 126.009 32.1719C126.201 32.1719 126.378 32.2037 126.541 32.2672C126.705 32.3286 126.846 32.4197 126.964 32.5405C127.082 32.6614 127.174 32.81 127.239 32.986C127.307 33.1602 127.34 33.3589 127.34 33.5821C127.34 33.6846 127.329 33.7531 127.307 33.7881C127.284 33.8228 127.243 33.8402 127.184 33.8402H125.18ZM131.025 33.8003C131.025 34.0481 130.995 34.2714 130.933 34.4701C130.874 34.6667 130.784 34.8346 130.664 34.9739C130.545 35.1111 130.398 35.2176 130.22 35.2935C130.044 35.3673 129.84 35.4041 129.608 35.4041C129.502 35.4041 129.397 35.3968 129.293 35.3825C129.189 35.3702 129.081 35.3497 128.969 35.3211L129.005 34.891C129.011 34.8499 129.026 34.8173 129.051 34.7926C129.078 34.7681 129.115 34.7557 129.164 34.7557C129.201 34.7557 129.248 34.764 129.305 34.7804C129.364 34.7947 129.44 34.8019 129.534 34.8019C129.659 34.8019 129.769 34.7833 129.865 34.7465C129.963 34.7096 130.044 34.6523 130.11 34.5745C130.177 34.4946 130.227 34.3932 130.26 34.2703C130.294 34.1454 130.312 33.9948 130.312 33.8187V30.9306H131.025V33.8003ZM133.153 32.1719C133.383 32.1719 133.592 32.2099 133.777 32.2856C133.965 32.3614 134.124 32.4689 134.255 32.6083C134.387 32.7475 134.489 32.9165 134.561 33.1151C134.632 33.3138 134.668 33.5371 134.668 33.785C134.668 34.0328 134.632 34.256 134.561 34.4546C134.489 34.6534 134.387 34.8233 134.255 34.9647C134.124 35.1039 133.965 35.2115 133.777 35.2873C133.592 35.363 133.383 35.401 133.153 35.401C132.92 35.401 132.71 35.363 132.522 35.2873C132.337 35.2115 132.178 35.1039 132.045 34.9647C131.913 34.8233 131.81 34.6534 131.739 34.4546C131.667 34.256 131.632 34.0328 131.632 33.785C131.632 33.5371 131.667 33.3138 131.739 33.1151C131.81 32.9165 131.913 32.7475 132.045 32.6083C132.178 32.4689 132.337 32.3614 132.522 32.2856C132.71 32.2099 132.92 32.1719 133.153 32.1719ZM133.153 34.8848C133.435 34.8848 133.644 34.7907 133.78 34.6021C133.919 34.4117 133.988 34.1403 133.988 33.7881C133.988 33.4356 133.919 33.1642 133.78 32.9738C133.644 32.7812 133.435 32.685 133.153 32.685C132.867 32.685 132.655 32.7812 132.516 32.9738C132.377 33.1642 132.308 33.4356 132.308 33.7881C132.308 34.1403 132.377 34.4117 132.516 34.6021C132.655 34.7907 132.867 34.8848 133.153 34.8848ZM136.968 33.9846C136.733 33.9929 136.535 34.0122 136.374 34.0431C136.213 34.0717 136.082 34.1095 135.982 34.1566C135.882 34.2017 135.81 34.256 135.765 34.3195C135.722 34.383 135.701 34.4527 135.701 34.5283C135.701 34.6021 135.712 34.6656 135.734 34.7188C135.759 34.77 135.792 34.8131 135.833 34.848C135.875 34.8807 135.924 34.9053 135.979 34.9217C136.036 34.936 136.099 34.9432 136.166 34.9432C136.337 34.9432 136.484 34.9115 136.606 34.848C136.731 34.7824 136.852 34.6882 136.968 34.5652V33.9846ZM135.223 32.6573C135.576 32.3276 135.997 32.1627 136.484 32.1627C136.664 32.1627 136.823 32.1925 136.961 32.2518C137.102 32.3091 137.22 32.3911 137.314 32.4976C137.409 32.604 137.482 32.731 137.531 32.8785C137.582 33.024 137.607 33.1858 137.607 33.364V35.3549H137.314C137.251 35.3549 137.203 35.3456 137.17 35.3273C137.137 35.3068 137.11 35.2669 137.087 35.2074L137.023 34.9524C136.943 35.0241 136.864 35.0885 136.787 35.146C136.71 35.2013 136.629 35.2483 136.546 35.2873C136.464 35.3262 136.375 35.3549 136.279 35.3732C136.185 35.3939 136.081 35.4041 135.967 35.4041C135.841 35.4041 135.722 35.3865 135.612 35.3518C135.504 35.3171 135.41 35.2648 135.33 35.1951C135.251 35.1235 135.188 35.0354 135.14 34.9309C135.096 34.8264 135.073 34.7036 135.073 34.5621C135.073 34.4413 135.105 34.3235 135.168 34.2089C135.233 34.0942 135.34 33.9917 135.487 33.9016C135.636 33.8095 135.83 33.7336 136.071 33.6744C136.314 33.6149 136.613 33.5812 136.968 33.5729V33.364C136.968 33.1387 136.92 32.9708 136.824 32.8602C136.728 32.7496 136.587 32.6942 136.401 32.6942C136.275 32.6942 136.169 32.7106 136.084 32.7434C135.998 32.7741 135.923 32.8079 135.86 32.8447C135.797 32.8816 135.741 32.9165 135.692 32.9492C135.643 32.9799 135.591 32.9953 135.536 32.9953C135.491 32.9953 135.452 32.9841 135.419 32.9615C135.389 32.937 135.363 32.9073 135.343 32.8723L135.223 32.6573ZM136.747 31.2256C136.813 31.2256 136.864 31.2073 136.9 31.1704C136.937 31.1314 136.957 31.0679 136.959 30.9799H137.36C137.36 31.0864 137.345 31.1837 137.317 31.2718C137.288 31.3578 137.247 31.4325 137.194 31.496C137.143 31.5574 137.081 31.6057 137.008 31.6404C136.936 31.6732 136.857 31.6896 136.772 31.6896C136.7 31.6896 136.633 31.6763 136.57 31.6496C136.506 31.6209 136.447 31.5902 136.393 31.5574C136.337 31.5246 136.285 31.495 136.236 31.4684C136.188 31.4397 136.141 31.4254 136.099 31.4254C136.033 31.4254 135.982 31.4458 135.946 31.4868C135.909 31.5257 135.89 31.5892 135.89 31.6773H135.483C135.483 31.5707 135.498 31.4734 135.527 31.3854C135.557 31.2974 135.598 31.2225 135.649 31.1611C135.702 31.0976 135.764 31.0484 135.835 31.0137C135.909 30.9789 135.988 30.9614 136.074 30.9614C136.147 30.9614 136.216 30.9758 136.279 31.0044C136.342 31.031 136.401 31.0607 136.457 31.0936C136.512 31.1263 136.563 31.1571 136.61 31.1857C136.659 31.2123 136.704 31.2256 136.747 31.2256ZM139.728 32.1719C139.958 32.1719 140.167 32.2099 140.352 32.2856C140.54 32.3614 140.699 32.4689 140.829 32.6083C140.962 32.7475 141.064 32.9165 141.135 33.1151C141.207 33.3138 141.243 33.5371 141.243 33.785C141.243 34.0328 141.207 34.256 141.135 34.4546C141.064 34.6534 140.962 34.8233 140.829 34.9647C140.699 35.1039 140.54 35.2115 140.352 35.2873C140.167 35.363 139.958 35.401 139.728 35.401C139.495 35.401 139.285 35.363 139.097 35.2873C138.911 35.2115 138.753 35.1039 138.62 34.9647C138.487 34.8233 138.385 34.6534 138.314 34.4546C138.242 34.256 138.207 34.0328 138.207 33.785C138.207 33.5371 138.242 33.3138 138.314 33.1151C138.385 32.9165 138.487 32.7475 138.62 32.6083C138.753 32.4689 138.911 32.3614 139.097 32.2856C139.285 32.2099 139.495 32.1719 139.728 32.1719ZM139.728 34.8848C140.009 34.8848 140.219 34.7907 140.355 34.6021C140.494 34.4117 140.563 34.1403 140.563 33.7881C140.563 33.4356 140.494 33.1642 140.355 32.9738C140.219 32.7812 140.009 32.685 139.728 32.685C139.442 32.685 139.23 32.7812 139.091 32.9738C138.952 33.1642 138.883 33.4356 138.883 33.7881C138.883 34.1403 138.952 34.4117 139.091 34.6021C139.23 34.7907 139.442 34.8848 139.728 34.8848ZM144.892 33.1858C145.051 33.1858 145.191 33.1653 145.312 33.1244C145.434 33.0834 145.535 33.026 145.615 32.9523C145.696 32.8766 145.757 32.7853 145.798 32.6789C145.839 32.5724 145.86 32.4535 145.86 32.3224C145.86 32.1934 145.839 32.0777 145.798 31.9753C145.759 31.8729 145.7 31.7858 145.621 31.7141C145.541 31.6425 145.44 31.5881 145.318 31.5513C145.197 31.5124 145.055 31.4929 144.892 31.4929H144.238V33.1858H144.892ZM144.892 30.9306C145.18 30.9306 145.429 30.9645 145.639 31.032C145.851 31.0997 146.025 31.1949 146.162 31.3178C146.301 31.4387 146.404 31.585 146.472 31.7572C146.539 31.9271 146.573 32.1156 146.573 32.3224C146.573 32.5334 146.536 32.727 146.465 32.9032C146.394 33.0772 146.288 33.2277 146.147 33.3547C146.006 33.4798 145.831 33.578 145.621 33.6497C145.413 33.7193 145.17 33.7541 144.892 33.7541H144.238V35.3549H143.521V30.9306H144.892ZM149.027 33.4346C149.027 33.324 149.01 33.2217 148.978 33.1273C148.947 33.0312 148.901 32.9482 148.84 32.8785C148.779 32.8069 148.702 32.7515 148.61 32.7127C148.521 32.6718 148.416 32.6511 148.298 32.6511C148.06 32.6511 147.872 32.7198 147.735 32.8571C147.599 32.9943 147.512 33.1868 147.475 33.4346H149.027ZM147.457 33.8402C147.465 34.0184 147.492 34.173 147.539 34.3041C147.586 34.4332 147.648 34.5407 147.726 34.6268C147.806 34.7127 147.9 34.7773 148.008 34.8202C148.117 34.8613 148.24 34.8818 148.375 34.8818C148.503 34.8818 148.614 34.8673 148.708 34.8387C148.802 34.808 148.884 34.7752 148.953 34.7405C149.023 34.7036 149.082 34.6708 149.131 34.642C149.18 34.6114 149.225 34.5961 149.266 34.5961C149.318 34.5961 149.359 34.6165 149.388 34.6575L149.575 34.9001C149.497 34.9924 149.409 35.0702 149.311 35.1337C149.213 35.1972 149.109 35.2493 148.999 35.2904C148.889 35.3293 148.776 35.357 148.659 35.3732C148.543 35.3918 148.43 35.401 148.319 35.401C148.103 35.401 147.902 35.3651 147.717 35.2935C147.533 35.2197 147.373 35.1122 147.236 34.9708C147.102 34.8295 146.995 34.6544 146.918 34.4455C146.842 34.2365 146.805 33.9959 146.805 33.7234C146.805 33.5063 146.838 33.3036 146.906 33.1151C146.975 32.9268 147.073 32.7629 147.199 32.6235C147.328 32.4843 147.483 32.3747 147.665 32.2948C147.848 32.2129 148.055 32.1719 148.286 32.1719C148.478 32.1719 148.655 32.2037 148.818 32.2672C148.982 32.3286 149.122 32.4197 149.24 32.5405C149.359 32.6614 149.451 32.81 149.516 32.986C149.583 33.1602 149.617 33.3589 149.617 33.5821C149.617 33.6846 149.606 33.7531 149.583 33.7881C149.561 33.8228 149.52 33.8402 149.461 33.8402H147.457ZM152.095 32.7895C152.078 32.8181 152.06 32.8386 152.04 32.8509C152.019 32.8633 151.994 32.8693 151.963 32.8693C151.928 32.8693 151.891 32.859 151.85 32.8386C151.809 32.8161 151.761 32.7915 151.706 32.7648C151.651 32.7382 151.585 32.7146 151.51 32.6942C151.436 32.6718 151.35 32.6604 151.25 32.6604C151.168 32.6604 151.094 32.6707 151.026 32.6911C150.961 32.7096 150.905 32.7372 150.858 32.7741C150.813 32.8088 150.779 32.8509 150.754 32.9001C150.73 32.9472 150.717 32.9984 150.717 33.0536C150.717 33.1273 150.74 33.1889 150.785 33.238C150.83 33.2872 150.889 33.3302 150.962 33.3671C151.036 33.4019 151.119 33.4336 151.213 33.4622C151.307 33.491 151.403 33.5217 151.501 33.5545C151.599 33.5873 151.695 33.6251 151.789 33.6682C151.883 33.7113 151.966 33.7644 152.04 33.8279C152.113 33.8894 152.172 33.9651 152.217 34.0552C152.262 34.1434 152.284 34.251 152.284 34.3778C152.284 34.5253 152.258 34.6616 152.204 34.7864C152.152 34.9115 152.074 35.02 151.972 35.1122C151.87 35.2043 151.742 35.276 151.589 35.3273C151.439 35.3785 151.265 35.4041 151.069 35.4041C150.961 35.4041 150.856 35.3939 150.754 35.3732C150.654 35.3549 150.558 35.3293 150.466 35.2964C150.377 35.2617 150.292 35.2207 150.212 35.1737C150.135 35.1265 150.066 35.0754 150.004 35.02L150.157 34.7681C150.175 34.7374 150.198 34.7138 150.225 34.6974C150.253 34.6789 150.288 34.6698 150.329 34.6698C150.372 34.6698 150.413 34.6841 150.454 34.7127C150.497 34.7394 150.546 34.769 150.601 34.8019C150.658 34.8346 150.727 34.8654 150.806 34.894C150.886 34.9206 150.985 34.9339 151.103 34.9339C151.201 34.9339 151.286 34.9227 151.357 34.9001C151.428 34.8756 151.488 34.8428 151.534 34.8019C151.581 34.7609 151.616 34.7148 151.638 34.6636C151.661 34.6104 151.672 34.554 151.672 34.4946C151.672 34.4147 151.65 34.3492 151.605 34.298C151.56 34.2467 151.5 34.2027 151.424 34.1658C151.351 34.1289 151.266 34.0962 151.171 34.0676C151.077 34.0388 150.981 34.0081 150.883 33.9753C150.785 33.9427 150.688 33.9047 150.592 33.8618C150.498 33.8187 150.413 33.7644 150.338 33.6989C150.264 33.6313 150.205 33.5504 150.16 33.4562C150.115 33.3599 150.093 33.2431 150.093 33.1059C150.093 32.981 150.118 32.8621 150.167 32.7496C150.218 32.6368 150.291 32.5376 150.387 32.4515C150.485 32.3655 150.604 32.2979 150.745 32.2487C150.888 32.1975 151.052 32.1719 151.238 32.1719C151.448 32.1719 151.638 32.2058 151.81 32.2734C151.981 32.3409 152.125 32.433 152.241 32.5498L152.095 32.7895ZM154.766 32.7895C154.75 32.8181 154.731 32.8386 154.711 32.8509C154.691 32.8633 154.665 32.8693 154.634 32.8693C154.6 32.8693 154.562 32.859 154.522 32.8386C154.481 32.8161 154.433 32.7915 154.378 32.7648C154.323 32.7382 154.257 32.7146 154.182 32.6942C154.108 32.6718 154.022 32.6604 153.922 32.6604C153.84 32.6604 153.765 32.6707 153.698 32.6911C153.633 32.7096 153.577 32.7372 153.53 32.7741C153.485 32.8088 153.45 32.8509 153.426 32.9001C153.402 32.9472 153.389 32.9984 153.389 33.0536C153.389 33.1273 153.412 33.1889 153.457 33.238C153.501 33.2872 153.56 33.3302 153.634 33.3671C153.708 33.4019 153.791 33.4336 153.885 33.4622C153.979 33.491 154.074 33.5217 154.173 33.5545C154.271 33.5873 154.366 33.6251 154.46 33.6682C154.554 33.7113 154.638 33.7644 154.711 33.8279C154.785 33.8894 154.844 33.9651 154.889 34.0552C154.933 34.1434 154.956 34.251 154.956 34.3778C154.956 34.5253 154.929 34.6616 154.877 34.7864C154.824 34.9115 154.746 35.02 154.644 35.1122C154.542 35.2043 154.414 35.276 154.261 35.3273C154.111 35.3785 153.937 35.4041 153.741 35.4041C153.633 35.4041 153.528 35.3939 153.426 35.3732C153.326 35.3549 153.23 35.3293 153.138 35.2964C153.048 35.2617 152.964 35.2207 152.884 35.1737C152.806 35.1265 152.738 35.0754 152.676 35.02L152.829 34.7681C152.847 34.7374 152.87 34.7138 152.896 34.6974C152.925 34.6789 152.96 34.6698 153 34.6698C153.044 34.6698 153.085 34.6841 153.126 34.7127C153.169 34.7394 153.218 34.769 153.273 34.8019C153.33 34.8346 153.398 34.8654 153.478 34.894C153.558 34.9206 153.656 34.9339 153.775 34.9339C153.873 34.9339 153.958 34.9227 154.029 34.9001C154.1 34.8756 154.16 34.8428 154.206 34.8019C154.253 34.7609 154.288 34.7148 154.31 34.6636C154.333 34.6104 154.344 34.554 154.344 34.4946C154.344 34.4147 154.321 34.3492 154.276 34.298C154.231 34.2467 154.171 34.2027 154.096 34.1658C154.022 34.1289 153.938 34.0962 153.842 34.0676C153.749 34.0388 153.652 34.0081 153.555 33.9753C153.457 33.9427 153.36 33.9047 153.264 33.8618C153.17 33.8187 153.085 33.7644 153.01 33.6989C152.936 33.6313 152.877 33.5504 152.832 33.4562C152.787 33.3599 152.765 33.2431 152.765 33.1059C152.765 32.981 152.79 32.8621 152.838 32.7496C152.889 32.6368 152.963 32.5376 153.059 32.4515C153.157 32.3655 153.276 32.2979 153.417 32.2487C153.559 32.1975 153.724 32.1719 153.91 32.1719C154.119 32.1719 154.31 32.2058 154.481 32.2734C154.653 32.3409 154.797 32.433 154.913 32.5498L154.766 32.7895ZM156.924 32.1719C157.155 32.1719 157.362 32.2099 157.548 32.2856C157.736 32.3614 157.895 32.4689 158.026 32.6083C158.158 32.7475 158.26 32.9165 158.332 33.1151C158.403 33.3138 158.439 33.5371 158.439 33.785C158.439 34.0328 158.403 34.256 158.332 34.4546C158.26 34.6534 158.158 34.8233 158.026 34.9647C157.895 35.1039 157.736 35.2115 157.548 35.2873C157.362 35.363 157.155 35.401 156.924 35.401C156.691 35.401 156.481 35.363 156.294 35.2873C156.108 35.2115 155.949 35.1039 155.816 34.9647C155.683 34.8233 155.582 34.6534 155.51 34.4546C155.439 34.256 155.403 34.0328 155.403 33.785C155.403 33.5371 155.439 33.3138 155.51 33.1151C155.582 32.9165 155.683 32.7475 155.816 32.6083C155.949 32.4689 156.108 32.3614 156.294 32.2856C156.481 32.2099 156.691 32.1719 156.924 32.1719ZM156.924 34.8848C157.205 34.8848 157.415 34.7907 157.552 34.6021C157.69 34.4117 157.76 34.1403 157.76 33.7881C157.76 33.4356 157.69 33.1642 157.552 32.9738C157.415 32.7812 157.205 32.685 156.924 32.685C156.638 32.685 156.426 32.7812 156.287 32.9738C156.149 33.1642 156.079 33.4356 156.079 33.7881C156.079 34.1403 156.149 34.4117 156.287 34.6021C156.426 34.7907 156.638 34.8848 156.924 34.8848ZM160.739 33.9846C160.504 33.9929 160.306 34.0122 160.145 34.0431C159.984 34.0717 159.853 34.1095 159.753 34.1566C159.654 34.2017 159.581 34.256 159.536 34.3195C159.494 34.383 159.472 34.4527 159.472 34.5283C159.472 34.6021 159.483 34.6656 159.506 34.7188C159.53 34.77 159.562 34.8131 159.603 34.848C159.647 34.8807 159.696 34.9053 159.75 34.9217C159.808 34.936 159.87 34.9432 159.937 34.9432C160.108 34.9432 160.255 34.9115 160.378 34.848C160.502 34.7824 160.622 34.6882 160.739 34.5652V33.9846ZM158.995 32.6573C159.348 32.3276 159.767 32.1627 160.255 32.1627C160.435 32.1627 160.594 32.1925 160.733 32.2518C160.874 32.3091 160.991 32.3911 161.085 32.4976C161.181 32.604 161.253 32.731 161.302 32.8785C161.353 33.024 161.379 33.1858 161.379 33.364V35.3549H161.085C161.021 35.3549 160.973 35.3456 160.941 35.3273C160.908 35.3068 160.881 35.2669 160.858 35.2074L160.794 34.9524C160.715 35.0241 160.636 35.0885 160.558 35.146C160.481 35.2013 160.401 35.2483 160.316 35.2873C160.235 35.3262 160.146 35.3549 160.05 35.3732C159.957 35.3939 159.853 35.4041 159.738 35.4041C159.611 35.4041 159.494 35.3865 159.383 35.3518C159.275 35.3171 159.181 35.2648 159.102 35.1951C159.022 35.1235 158.959 35.0354 158.912 34.9309C158.867 34.8264 158.845 34.7036 158.845 34.5621C158.845 34.4413 158.876 34.3235 158.939 34.2089C159.005 34.0942 159.111 33.9917 159.258 33.9016C159.406 33.8095 159.602 33.7336 159.842 33.6744C160.085 33.6149 160.384 33.5812 160.739 33.5729V33.364C160.739 33.1387 160.691 32.9708 160.595 32.8602C160.499 32.7496 160.358 32.6942 160.173 32.6942C160.046 32.6942 159.94 32.7106 159.854 32.7434C159.769 32.7741 159.694 32.8079 159.631 32.8447C159.568 32.8816 159.512 32.9165 159.463 32.9492C159.414 32.9799 159.362 32.9953 159.307 32.9953C159.262 32.9953 159.223 32.9841 159.19 32.9615C159.159 32.937 159.134 32.9073 159.114 32.8723L158.995 32.6573Z" fill="white"/>
<path d="M34.1545 33.7261L33.5486 32.11C33.4996 31.9851 33.4496 31.8263 33.3986 31.6338C33.3762 31.7301 33.3517 31.8191 33.3252 31.9011C33.2987 31.9809 33.2741 32.0517 33.2518 32.1131L32.6457 33.7261H34.1545ZM35.5102 35.3852H34.9563C34.893 35.3852 34.8421 35.3697 34.8032 35.339C34.7646 35.3062 34.7349 35.2663 34.7146 35.2192L34.3473 34.2422H32.45L32.0827 35.2192C32.0664 35.2602 32.0378 35.2981 31.997 35.3329C31.9562 35.3677 31.9051 35.3852 31.8439 35.3852H31.29L33.0375 30.9609H33.7628L35.5102 35.3852ZM37.016 33.7905C37.2201 33.7905 37.3731 33.7384 37.475 33.6339C37.5771 33.5294 37.6281 33.3933 37.6281 33.2253C37.6281 33.0532 37.5771 32.917 37.475 32.8167C37.3731 32.7163 37.2201 32.6661 37.016 32.6661C36.814 32.6661 36.6611 32.7163 36.557 32.8167C36.455 32.917 36.404 33.0532 36.404 33.2253C36.404 33.3072 36.4173 33.3831 36.4438 33.4525C36.4704 33.5222 36.509 33.5826 36.56 33.6339C36.6111 33.683 36.6744 33.722 36.7497 33.7506C36.8272 33.7772 36.9161 33.7905 37.016 33.7905ZM37.931 35.5388C37.931 35.4691 37.9107 35.4138 37.8699 35.3728C37.8311 35.3298 37.778 35.2971 37.7107 35.2745C37.6434 35.25 37.5648 35.2325 37.475 35.2223C37.3853 35.2101 37.2894 35.2018 37.1874 35.1977C37.0874 35.1916 36.9845 35.1865 36.8784 35.1823C36.7743 35.1763 36.6732 35.166 36.5754 35.1516C36.4775 35.2029 36.3969 35.2643 36.3336 35.336C36.2723 35.4077 36.2418 35.4906 36.2418 35.5847C36.2418 35.6463 36.2571 35.7036 36.2877 35.7569C36.3204 35.8102 36.3693 35.8561 36.4346 35.8951C36.5019 35.9341 36.5865 35.9648 36.6886 35.9874C36.7926 36.0098 36.917 36.0211 37.062 36.0211C37.3516 36.0211 37.569 35.976 37.7138 35.8859C37.8586 35.7958 37.931 35.6801 37.931 35.5388ZM38.5921 32.365V32.6108C38.5921 32.6928 38.5431 32.743 38.4452 32.7613L38.1329 32.8136C38.186 32.9323 38.2125 33.0645 38.2125 33.2099C38.2125 33.3635 38.182 33.5027 38.1208 33.6278C38.0616 33.7527 37.9789 33.8593 37.873 33.9473C37.7668 34.0353 37.6403 34.1029 37.4934 34.15C37.3466 34.1972 37.1874 34.2208 37.016 34.2208C36.9507 34.2208 36.8865 34.2177 36.8232 34.2115C36.762 34.2033 36.7019 34.193 36.6426 34.1808C36.5834 34.2156 36.5396 34.2524 36.5111 34.2914C36.4825 34.3303 36.4683 34.3702 36.4683 34.4112C36.4683 34.4788 36.4979 34.529 36.557 34.5617C36.6161 34.5945 36.6936 34.6181 36.7895 34.6324C36.8874 34.6468 36.9987 34.6559 37.1231 34.6601C37.2476 34.6642 37.3741 34.6713 37.5027 34.6816C37.6311 34.6918 37.7577 34.7092 37.882 34.7339C38.0066 34.7563 38.1168 34.7953 38.2125 34.8505C38.3106 34.9037 38.389 34.9765 38.4483 35.0687C38.5075 35.1608 38.5369 35.2807 38.5369 35.4282C38.5369 35.5633 38.5033 35.6954 38.436 35.8245C38.3687 35.9535 38.2708 36.0683 38.1422 36.1687C38.0157 36.269 37.8607 36.3488 37.6771 36.4082C37.4934 36.4696 37.2842 36.5005 37.0497 36.5005C36.817 36.5005 36.6141 36.4779 36.4407 36.4327C36.2693 36.3878 36.1254 36.3264 36.0091 36.2484C35.8949 36.1727 35.8093 36.0847 35.7521 35.9843C35.6971 35.8839 35.6695 35.7795 35.6695 35.6708C35.6695 35.5234 35.7153 35.3975 35.8072 35.2929C35.9011 35.1884 36.0276 35.1066 36.1868 35.0471C36.101 35.0062 36.0316 34.9499 35.9786 34.8782C35.9276 34.8065 35.902 34.7122 35.902 34.5955C35.902 34.5034 35.9357 34.4071 36.0031 34.3067C36.0704 34.2063 36.1714 34.1214 36.306 34.0517C36.151 33.9656 36.0285 33.8521 35.9387 33.7106C35.849 33.5674 35.8042 33.4004 35.8042 33.2099C35.8042 33.0543 35.8337 32.914 35.8929 32.7889C35.9541 32.664 36.0387 32.5575 36.1469 32.4695C36.255 32.3814 36.3825 32.3138 36.5294 32.2668C36.6784 32.2196 36.8405 32.1961 37.016 32.1961C37.2854 32.1961 37.52 32.2523 37.7199 32.365H38.5921ZM41.1054 33.4649C41.1054 33.3543 41.089 33.252 41.0564 33.1576C41.0258 33.0615 40.9799 32.9784 40.9187 32.9088C40.8575 32.8371 40.781 32.7818 40.6891 32.743C40.5993 32.702 40.4953 32.6814 40.377 32.6814C40.1383 32.6814 39.9506 32.7501 39.8139 32.8873C39.6772 33.0246 39.5905 33.2171 39.5537 33.4649H41.1054ZM39.5355 33.8705C39.5436 34.0486 39.5711 34.2033 39.618 34.3343C39.6649 34.4634 39.7272 34.5709 39.8047 34.657C39.8842 34.743 39.9781 34.8076 40.0863 34.8505C40.1965 34.8915 40.3188 34.912 40.4535 34.912C40.582 34.912 40.6932 34.8976 40.7871 34.869C40.881 34.8383 40.9625 34.8055 41.0319 34.7707C41.1013 34.7339 41.1604 34.701 41.2094 34.6723C41.2584 34.6416 41.3032 34.6263 41.344 34.6263C41.3971 34.6263 41.4379 34.6468 41.4665 34.6877L41.6532 34.9304C41.5757 35.0226 41.4878 35.1004 41.39 35.1639C41.2921 35.2274 41.1881 35.2796 41.0779 35.3207C40.9677 35.3595 40.8545 35.3873 40.7381 35.4035C40.6218 35.422 40.5086 35.4312 40.3984 35.4312C40.1821 35.4312 39.9812 35.3954 39.7956 35.3238C39.612 35.25 39.4518 35.1425 39.3151 35.0011C39.1804 34.8598 39.0744 34.6846 38.9968 34.4758C38.9214 34.2668 38.8835 34.0262 38.8835 33.7537C38.8835 33.5366 38.9173 33.3338 38.9846 33.1454C39.054 32.957 39.1519 32.7932 39.2784 32.6538C39.4069 32.5146 39.562 32.405 39.7435 32.325C39.9271 32.2432 40.1342 32.2021 40.3648 32.2021C40.5565 32.2021 40.7341 32.2339 40.8973 32.2974C41.0604 32.3588 41.2013 32.45 41.3196 32.5708C41.4379 32.6917 41.5297 32.8402 41.595 33.0163C41.6624 33.1904 41.6961 33.3892 41.6961 33.6124C41.6961 33.7148 41.6847 33.7834 41.6624 33.8183C41.6399 33.853 41.5991 33.8705 41.5399 33.8705H39.5355ZM41.3807 31.7936H40.94C40.9135 31.7936 40.887 31.7894 40.8606 31.7813C40.836 31.773 40.8106 31.7547 40.7841 31.7259L40.4474 31.3696C40.429 31.3512 40.4107 31.3296 40.3923 31.3051C40.3821 31.3174 40.3719 31.3286 40.3617 31.3389C40.3536 31.3491 40.3444 31.3593 40.3342 31.3696L39.9914 31.7259C39.969 31.7485 39.9445 31.7659 39.9179 31.7782C39.8914 31.7884 39.8639 31.7936 39.8354 31.7936H39.3794L40.0741 30.9609H40.686L41.3807 31.7936ZM42.9247 32.6661C42.992 32.5964 43.0614 32.5339 43.1329 32.4787C43.2062 32.4214 43.2838 32.3722 43.3654 32.3312C43.4471 32.2903 43.5338 32.2585 43.6255 32.236C43.7174 32.2135 43.8172 32.2021 43.9254 32.2021C44.0968 32.2021 44.2468 32.2309 44.3754 32.2882C44.5059 32.3455 44.615 32.4264 44.7028 32.531C44.7926 32.6354 44.8599 32.7613 44.9047 32.9088C44.9497 33.0543 44.972 33.2151 44.972 33.3911V35.3852H44.3171V33.3911C44.3171 33.1802 44.2682 33.0163 44.1703 32.8995C44.0743 32.7829 43.9274 32.7244 43.7295 32.7244C43.5827 32.7244 43.4459 32.7582 43.3195 32.8258C43.195 32.8935 43.0777 32.9856 42.9676 33.1024V35.3852H42.3096V32.2513H42.7074C42.7972 32.2513 42.8543 32.2934 42.8787 32.3773L42.9247 32.6661ZM47.9469 32.8657C47.9265 32.8924 47.9072 32.9128 47.8888 32.9273C47.8704 32.9416 47.8439 32.9487 47.8093 32.9487C47.7746 32.9487 47.7379 32.9364 47.6991 32.9119C47.6623 32.8873 47.6174 32.8607 47.5645 32.832C47.5134 32.8012 47.4512 32.7736 47.3778 32.7491C47.3043 32.7244 47.2125 32.7122 47.1023 32.7122C46.9594 32.7122 46.834 32.7377 46.7258 32.7889C46.6199 32.8402 46.53 32.914 46.4566 33.0102C46.3851 33.1045 46.3311 33.2201 46.2943 33.3574C46.2597 33.4925 46.2424 33.6452 46.2424 33.8152C46.2424 33.9913 46.2617 34.148 46.3005 34.2853C46.3393 34.4225 46.3943 34.5382 46.4658 34.6324C46.5393 34.7265 46.627 34.7983 46.7289 34.8476C46.8331 34.8966 46.9493 34.9213 47.0779 34.9213C47.2044 34.9213 47.3074 34.9058 47.3869 34.8752C47.4665 34.8445 47.5327 34.8107 47.5858 34.7738C47.6389 34.7369 47.6837 34.703 47.7204 34.6723C47.7593 34.6416 47.8001 34.6263 47.8429 34.6263C47.8959 34.6263 47.9367 34.6468 47.9654 34.6877L48.152 34.9304C48.0765 35.0226 47.9929 35.1004 47.901 35.1639C47.8093 35.2274 47.7123 35.2796 47.6103 35.3207C47.5083 35.3595 47.4022 35.3873 47.2921 35.4035C47.1819 35.422 47.0707 35.4312 46.9585 35.4312C46.7646 35.4312 46.5831 35.3954 46.4138 35.3238C46.2464 35.25 46.0996 35.1445 45.9731 35.0072C45.8487 34.868 45.7496 34.6989 45.6762 34.5003C45.6048 34.2995 45.5691 34.0712 45.5691 33.8152C45.5691 33.5838 45.6017 33.3697 45.667 33.173C45.7323 32.9744 45.8271 32.8034 45.9517 32.6599C46.0781 32.5165 46.2342 32.405 46.4199 32.325C46.6054 32.2432 46.8198 32.2021 47.0625 32.2021C47.289 32.2021 47.488 32.239 47.6593 32.3127C47.8327 32.3864 47.9867 32.491 48.1213 32.6262L47.9469 32.8657ZM49.3667 32.2513V35.3852H48.7088V32.2513H49.3667ZM49.4769 31.3051C49.4769 31.3645 49.4646 31.4207 49.4402 31.474C49.4177 31.5272 49.3861 31.5744 49.3454 31.6153C49.3045 31.6543 49.2566 31.686 49.2016 31.7106C49.1485 31.7332 49.0914 31.7444 49.0301 31.7444C48.9709 31.7444 48.9149 31.7332 48.8618 31.7106C48.8109 31.686 48.7659 31.6543 48.7271 31.6153C48.6884 31.5744 48.6567 31.5272 48.6323 31.474C48.6098 31.4207 48.5986 31.3645 48.5986 31.3051C48.5986 31.2437 48.6098 31.1862 48.6323 31.1331C48.6567 31.0798 48.6884 31.0337 48.7271 30.9947C48.7659 30.9538 48.8109 30.9221 48.8618 30.8995C48.9149 30.875 48.9709 30.8626 49.0301 30.8626C49.0914 30.8626 49.1485 30.875 49.2016 30.8995C49.2566 30.9221 49.3045 30.9538 49.3454 30.9947C49.3861 31.0337 49.4177 31.0798 49.4402 31.1331C49.4646 31.1862 49.4769 31.2437 49.4769 31.3051ZM51.8613 34.0148C51.6267 34.0231 51.4287 34.0424 51.2676 34.0733C51.1065 34.1019 50.9759 34.1398 50.8759 34.1868C50.7759 34.232 50.7034 34.2862 50.6587 34.3497C50.6158 34.4133 50.5944 34.4829 50.5944 34.5586C50.5944 34.6323 50.6056 34.6959 50.6281 34.7491C50.6525 34.8003 50.6852 34.8433 50.7259 34.8782C50.7688 34.9109 50.8178 34.9356 50.8729 34.952C50.9299 34.9663 50.9922 34.9734 51.0595 34.9734C51.2309 34.9734 51.3778 34.9417 51.5002 34.8782C51.6246 34.8126 51.745 34.7185 51.8613 34.5955V34.0148ZM50.117 32.6876C50.4698 32.3579 50.8902 32.193 51.3778 32.193C51.5573 32.193 51.7165 32.2227 51.8552 32.282C51.9959 32.3393 52.1132 32.4214 52.2072 32.5279C52.303 32.6343 52.3754 32.7613 52.4244 32.9088C52.4754 33.0543 52.501 33.2161 52.501 33.3943V35.3852H52.2072C52.1439 35.3852 52.0959 35.3759 52.0634 35.3575C52.0307 35.3371 52.0031 35.2971 51.9807 35.2377L51.9165 34.9826C51.8369 35.0543 51.7582 35.1188 51.6807 35.1763C51.6032 35.2315 51.5227 35.2786 51.4391 35.3176C51.3574 35.3564 51.2687 35.3852 51.1728 35.4035C51.079 35.4241 50.9749 35.4343 50.8606 35.4343C50.7341 35.4343 50.6158 35.4168 50.5056 35.3821C50.3975 35.3473 50.3037 35.295 50.2241 35.2253C50.1445 35.1537 50.0812 35.0657 50.0343 34.9611C49.9894 34.8566 49.9671 34.7339 49.9671 34.5924C49.9671 34.4716 49.9986 34.3538 50.0618 34.2391C50.1272 34.1245 50.2332 34.022 50.3801 33.9318C50.5291 33.8397 50.7238 33.7639 50.9646 33.7046C51.2074 33.6452 51.5064 33.6114 51.8613 33.6031V33.3943C51.8613 33.169 51.8134 33.001 51.7175 32.8904C51.6216 32.7798 51.4808 32.7244 51.2951 32.7244C51.1687 32.7244 51.0626 32.7409 50.9769 32.7736C50.8913 32.8044 50.8167 32.8381 50.7534 32.875C50.6902 32.9119 50.6342 32.9468 50.5852 32.9794C50.5362 33.0102 50.4843 33.0256 50.4291 33.0256C50.3843 33.0256 50.3454 33.0143 50.3127 32.9917C50.2822 32.9672 50.2566 32.9375 50.2362 32.9026L50.117 32.6876ZM56.7881 33.0225C56.6963 32.9037 56.5953 32.8208 56.4852 32.7736C56.375 32.7266 56.2556 32.703 56.1272 32.703C55.8701 32.703 55.669 32.7982 55.5242 32.9887C55.3794 33.1771 55.3069 33.4568 55.3069 33.8274C55.3069 34.02 55.3233 34.1849 55.356 34.3221C55.3885 34.4572 55.4354 34.5679 55.4967 34.654C55.5579 34.7399 55.6323 34.8024 55.7201 34.8413C55.8078 34.8802 55.9068 34.8997 56.017 34.8997C56.1843 34.8997 56.3281 34.8638 56.4485 34.7922C56.5708 34.7185 56.684 34.615 56.7881 34.4818V33.0225ZM57.446 30.8381V35.3852H57.0482C56.9605 35.3852 56.9044 35.3431 56.8799 35.2591L56.8219 34.9182C56.6912 35.0717 56.5423 35.1956 56.375 35.2898C56.2097 35.3842 56.017 35.4312 55.7966 35.4312C55.6211 35.4312 55.4619 35.3964 55.3193 35.3267C55.1764 35.2551 55.0539 35.1516 54.952 35.0165C54.8499 34.8813 54.7703 34.7144 54.7132 34.5157C54.6582 34.3149 54.6306 34.0855 54.6306 33.8274C54.6306 33.594 54.6613 33.3778 54.7224 33.1792C54.7857 32.9805 54.8755 32.8084 54.9917 32.6631C55.108 32.5155 55.2487 32.4009 55.414 32.3189C55.5814 32.2349 55.768 32.193 55.9741 32.193C56.1577 32.193 56.3137 32.2227 56.4423 32.282C56.5708 32.3393 56.6862 32.4204 56.7881 32.5248V30.8381H57.446ZM60.298 33.4649C60.298 33.3543 60.2816 33.252 60.2489 33.1576C60.2185 33.0615 60.1724 32.9784 60.1117 32.9088C60.0503 32.8371 59.9738 32.7818 59.8816 32.743C59.7922 32.702 59.6882 32.6814 59.5697 32.6814C59.3308 32.6814 59.1434 32.7501 59.0067 32.8873C58.87 33.0246 58.783 33.2171 58.7462 33.4649H60.298ZM58.7281 33.8705C58.7363 34.0486 58.7637 34.2033 58.8105 34.3343C58.8578 34.4634 58.9197 34.5709 58.9974 34.657C59.0768 34.743 59.1708 34.8076 59.2788 34.8505C59.3892 34.8915 59.5113 34.912 59.6462 34.912C59.7747 34.912 59.8856 34.8976 59.9797 34.869C60.0737 34.8383 60.1555 34.8055 60.2244 34.7707C60.2939 34.7339 60.3529 34.701 60.4019 34.6723C60.451 34.6416 60.4959 34.6263 60.5368 34.6263C60.59 34.6263 60.6303 34.6468 60.6589 34.6877L60.8458 34.9304C60.7681 35.0226 60.6805 35.1004 60.5824 35.1639C60.4848 35.2274 60.3803 35.2796 60.2705 35.3207C60.1601 35.3595 60.0468 35.3873 59.9306 35.4035C59.8144 35.422 59.7011 35.4312 59.5913 35.4312C59.3746 35.4312 59.1737 35.3954 58.988 35.3238C58.8046 35.25 58.6446 35.1425 58.5079 35.0011C58.373 34.8598 58.2669 34.6846 58.1894 34.4758C58.114 34.2668 58.0762 34.0262 58.0762 33.7537C58.0762 33.5366 58.1098 33.3338 58.1772 33.1454C58.2465 32.957 58.3446 32.7932 58.4711 32.6538C58.5996 32.5146 58.7544 32.405 58.936 32.325C59.12 32.2432 59.3267 32.2021 59.5574 32.2021C59.749 32.2021 59.9265 32.2339 60.0901 32.2974C60.253 32.3588 60.3937 32.45 60.5123 32.5708C60.6303 32.6917 60.7225 32.8402 60.7874 33.0163C60.8551 33.1904 60.8884 33.3892 60.8884 33.6124C60.8884 33.7148 60.8773 33.7834 60.8551 33.8183C60.8323 33.853 60.7915 33.8705 60.7325 33.8705H58.7281ZM63.8681 35.3852H63.1486V30.9609H63.8681V35.3852ZM65.3573 32.6661C65.4245 32.5964 65.4934 32.5339 65.5652 32.4787C65.6388 32.4214 65.7159 32.3722 65.7977 32.3312C65.8794 32.2903 65.9659 32.2585 66.0576 32.236C66.1498 32.2135 66.2497 32.2021 66.3578 32.2021C66.5289 32.2021 66.679 32.2309 66.8075 32.2882C66.9383 32.3455 67.0475 32.4264 67.1351 32.531C67.225 32.6354 67.2922 32.7613 67.3372 32.9088C67.3821 33.0543 67.4043 33.2151 67.4043 33.3911V35.3852H66.7496V33.3911C66.7496 33.1802 66.7006 33.0163 66.6025 32.8995C66.5067 32.7829 66.3595 32.7244 66.1621 32.7244C66.0149 32.7244 65.8783 32.7582 65.7515 32.8258C65.6271 32.8935 65.5098 32.9856 65.4 33.1024V35.3852H64.7418V32.2513H65.1395C65.2294 32.2513 65.2867 32.2934 65.3112 32.3773L65.3573 32.6661ZM69.5226 32.2021C69.7527 32.2021 69.9612 32.2401 70.1469 32.3158C70.3343 32.3916 70.4938 32.4992 70.624 32.6385C70.7566 32.7777 70.8588 32.9468 70.93 33.1454C71.0013 33.3441 71.0375 33.5674 71.0375 33.8152C71.0375 34.0631 71.0013 34.2862 70.93 34.4849C70.8588 34.6837 70.7566 34.8535 70.624 34.995C70.4938 35.1342 70.3343 35.2417 70.1469 35.3176C69.9612 35.3932 69.7527 35.4312 69.5226 35.4312C69.2895 35.4312 69.0793 35.3932 68.8918 35.3176C68.7061 35.2417 68.5472 35.1342 68.4147 34.995C68.2821 34.8535 68.1799 34.6837 68.1086 34.4849C68.0368 34.2862 68.0012 34.0631 68.0012 33.8152C68.0012 33.5674 68.0368 33.3441 68.1086 33.1454C68.1799 32.9468 68.2821 32.7777 68.4147 32.6385C68.5472 32.4992 68.7061 32.3916 68.8918 32.3158C69.0793 32.2401 69.2895 32.2021 69.5226 32.2021ZM69.5226 34.9151C69.8041 34.9151 70.0131 34.8209 70.1498 34.6324C70.2882 34.442 70.3577 34.1706 70.3577 33.8183C70.3577 33.4659 70.2882 33.1945 70.1498 33.0041C70.0131 32.8115 69.8041 32.7152 69.5226 32.7152C69.2364 32.7152 69.0244 32.8115 68.886 33.0041C68.747 33.1945 68.6775 33.4659 68.6775 33.8183C68.6775 34.1706 68.747 34.442 68.886 34.6324C69.0244 34.8209 69.2364 34.9151 69.5226 34.9151ZM74.3279 32.2513L73.0734 35.3852H72.4795L71.225 32.2513H71.7664C71.8172 32.2513 71.8592 32.2646 71.8919 32.2913C71.9264 32.3158 71.9492 32.3455 71.9591 32.3804L72.6512 34.2054C72.6792 34.2914 72.7049 34.3764 72.7277 34.4604C72.7499 34.5443 72.7691 34.6293 72.7855 34.7153C72.8018 34.6293 72.8211 34.5453 72.8433 34.4634C72.8684 34.3794 72.8947 34.2934 72.9233 34.2054L73.627 32.3804C73.6393 32.3436 73.6615 32.3127 73.6942 32.2882C73.7269 32.2637 73.7666 32.2513 73.8139 32.2513H74.3279ZM76.3737 34.0148C76.1389 34.0231 75.9409 34.0424 75.7798 34.0733C75.6186 34.1019 75.4883 34.1398 75.3885 34.1868C75.288 34.232 75.2156 34.2862 75.1712 34.3497C75.128 34.4133 75.1064 34.4829 75.1064 34.5586C75.1064 34.6323 75.1181 34.6959 75.1402 34.7491C75.1648 34.8003 75.1975 34.8433 75.2384 34.8782C75.281 34.9109 75.3301 34.9356 75.385 34.952C75.4422 34.9663 75.5047 34.9734 75.5718 34.9734C75.743 34.9734 75.8901 34.9417 76.0128 34.8782C76.1372 34.8126 76.2575 34.7185 76.3737 34.5955V34.0148ZM74.6292 32.6876C74.982 32.3579 75.4025 32.193 75.8901 32.193C76.0694 32.193 76.2289 32.2227 76.3673 32.282C76.508 32.3393 76.6254 32.4214 76.7194 32.5279C76.8152 32.6343 76.8876 32.7613 76.9367 32.9088C76.9875 33.0543 77.0132 33.2161 77.0132 33.3943V35.3852H76.7194C76.6564 35.3852 76.6085 35.3759 76.5758 35.3575C76.5431 35.3371 76.5156 35.2971 76.4928 35.2377L76.4286 34.9826C76.3492 35.0543 76.2709 35.1188 76.1932 35.1763C76.1156 35.2315 76.035 35.2786 75.9515 35.3176C75.8697 35.3564 75.7809 35.3852 75.6851 35.4035C75.5911 35.4241 75.4872 35.4343 75.3727 35.4343C75.2465 35.4343 75.128 35.4168 75.0182 35.3821C74.9096 35.3473 74.8161 35.295 74.7361 35.2253C74.6567 35.1537 74.5936 35.0657 74.5469 34.9611C74.5019 34.8566 74.4791 34.7339 74.4791 34.5924C74.4791 34.4716 74.5107 34.3538 74.5743 34.2391C74.6392 34.1245 74.7454 34.022 74.8926 33.9318C75.0415 33.8397 75.236 33.7639 75.4772 33.7046C75.7196 33.6452 76.0186 33.6114 76.3737 33.6031V33.3943C76.3737 33.169 76.3258 33.001 76.23 32.8904C76.1337 32.7798 75.9929 32.7244 75.8072 32.7244C75.6811 32.7244 75.5748 32.7409 75.4895 32.7736C75.4036 32.8044 75.3289 32.8381 75.2658 32.875C75.2027 32.9119 75.1467 32.9468 75.0976 32.9794C75.0486 33.0102 74.9966 33.0256 74.9417 33.0256C74.8967 33.0256 74.8576 33.0143 74.8249 32.9917C74.7945 32.9672 74.7688 32.9375 74.7484 32.9026L74.6292 32.6876ZM80.1955 34.9304C80.067 35.0861 79.9169 35.2029 79.7458 35.2807C79.5741 35.3564 79.3937 35.4035 79.2039 35.422L79.1583 35.591C79.3475 35.632 79.4824 35.6903 79.5619 35.7661C79.6436 35.8418 79.6845 35.9341 79.6845 36.0426C79.6845 36.1102 79.667 36.1706 79.6325 36.2239C79.5975 36.2792 79.549 36.3252 79.4854 36.3621C79.424 36.4011 79.3499 36.4308 79.2623 36.4513C79.1764 36.4717 79.0818 36.4819 78.9778 36.4819C78.8937 36.4819 78.8143 36.4748 78.739 36.4605C78.6654 36.446 78.5959 36.4256 78.5305 36.399L78.5918 36.1932C78.6041 36.1501 78.6309 36.1287 78.6712 36.1287C78.6841 36.1287 78.6969 36.1318 78.7115 36.1378C78.7279 36.144 78.746 36.1501 78.7664 36.1563C78.7886 36.1644 78.8131 36.1717 78.84 36.1777C78.8686 36.1839 78.9019 36.187 78.9411 36.187C79.0164 36.187 79.0725 36.1717 79.1093 36.1409C79.1478 36.1123 79.1671 36.0764 79.1671 36.0333C79.1671 35.9639 79.1274 35.9146 79.0479 35.8859C78.9703 35.8593 78.854 35.8347 78.6993 35.8122L78.8307 35.422C78.6572 35.4016 78.496 35.3514 78.3471 35.2715C78.2005 35.1896 78.0714 35.08 77.9617 34.9427C77.8536 34.8055 77.7678 34.6426 77.7047 34.4542C77.6434 34.2658 77.6124 34.0527 77.6124 33.8152C77.6124 33.5838 77.6451 33.3697 77.7105 33.173C77.7759 32.9744 77.8705 32.8034 77.9949 32.6599C78.1217 32.5165 78.2776 32.405 78.4633 32.325C78.649 32.2432 78.8634 32.2021 79.1063 32.2021C79.3323 32.2021 79.5315 32.239 79.7026 32.3127C79.8761 32.3864 80.0303 32.491 80.1652 32.6262L79.9905 32.8657C79.9701 32.8924 79.9508 32.9128 79.9321 32.9273C79.914 32.9416 79.8872 32.9487 79.8527 32.9487C79.8183 32.9487 79.7815 32.9364 79.7429 32.9119C79.7061 32.8873 79.6611 32.8607 79.608 32.832C79.5572 32.8012 79.4947 32.7736 79.4211 32.7491C79.3475 32.7244 79.2558 32.7122 79.146 32.7122C79.003 32.7122 78.8774 32.7377 78.7693 32.7889C78.6631 32.8402 78.5737 32.914 78.5001 33.0102C78.4289 33.1045 78.3745 33.2201 78.3378 33.3574C78.3033 33.4925 78.2858 33.6452 78.2858 33.8152C78.2858 33.9913 78.305 34.148 78.3442 34.2853C78.3827 34.4225 78.4376 34.5382 78.5095 34.6324C78.5825 34.7265 78.6707 34.7983 78.7723 34.8476C78.8762 34.8966 78.993 34.9213 79.1215 34.9213C79.2477 34.9213 79.351 34.9058 79.4305 34.8752C79.5099 34.8445 79.5765 34.8107 79.6296 34.7738C79.6828 34.7369 79.7271 34.703 79.7639 34.6723C79.8031 34.6416 79.8434 34.6263 79.8866 34.6263C79.9397 34.6263 79.98 34.6468 80.0086 34.6877L80.1955 34.9304ZM82.3926 34.0148C82.1578 34.0231 81.9599 34.0424 81.7987 34.0733C81.6381 34.1019 81.5072 34.1398 81.4074 34.1868C81.3075 34.232 81.2351 34.2862 81.1901 34.3497C81.1469 34.4133 81.1259 34.4829 81.1259 34.5586C81.1259 34.6323 81.137 34.6959 81.1592 34.7491C81.1837 34.8003 81.2164 34.8433 81.2573 34.8782C81.2999 34.9109 81.349 34.9356 81.4044 34.952C81.4611 34.9663 81.5236 34.9734 81.5908 34.9734C81.7625 34.9734 81.909 34.9417 82.0317 34.8782C82.1561 34.8126 82.2764 34.7185 82.3926 34.5955V34.0148ZM80.6481 32.6876C81.0009 32.3579 81.4214 32.193 81.909 32.193C82.0889 32.193 82.2478 32.2227 82.3868 32.282C82.5275 32.3393 82.6443 32.4214 82.7383 32.5279C82.8341 32.6343 82.9065 32.7613 82.9556 32.9088C83.007 33.0543 83.0321 33.2161 83.0321 33.3943V35.3852H82.7383C82.6753 35.3852 82.6274 35.3759 82.5947 35.3575C82.562 35.3371 82.5345 35.2971 82.5117 35.2377L82.4475 34.9826C82.3681 35.0543 82.2898 35.1188 82.2121 35.1763C82.1345 35.2315 82.0539 35.2786 81.9704 35.3176C81.8886 35.3564 81.7998 35.3852 81.704 35.4035C81.61 35.4241 81.5061 35.4343 81.3916 35.4343C81.2654 35.4343 81.1469 35.4168 81.0371 35.3821C80.9291 35.3473 80.835 35.295 80.7556 35.2253C80.6756 35.1537 80.6125 35.0657 80.5658 34.9611C80.5208 34.8566 80.4986 34.7339 80.4986 34.5924C80.4986 34.4716 80.5302 34.3538 80.5932 34.2391C80.6587 34.1245 80.7644 34.022 80.9115 33.9318C81.0605 33.8397 81.2549 33.7639 81.4961 33.7046C81.7385 33.6452 82.0375 33.6114 82.3926 33.6031V33.3943C82.3926 33.169 82.3447 33.001 82.2489 32.8904C82.1532 32.7798 82.0124 32.7244 81.8267 32.7244C81.7 32.7244 81.5937 32.7409 81.5084 32.7736C81.4226 32.8044 81.3478 32.8381 81.2847 32.875C81.2217 32.9119 81.1656 32.9468 81.1165 32.9794C81.0675 33.0102 81.0155 33.0256 80.9606 33.0256C80.9156 33.0256 80.8765 33.0143 80.8444 32.9917C80.8134 32.9672 80.7877 32.9375 80.7673 32.9026L80.6481 32.6876ZM82.1724 31.2559C82.2373 31.2559 82.2887 31.2375 82.3254 31.2007C82.3622 31.1617 82.3815 31.0982 82.3833 31.0101H82.7845C82.7845 31.1166 82.7699 31.214 82.7413 31.302C82.7132 31.388 82.6724 31.4628 82.6192 31.5263C82.5678 31.5877 82.5059 31.6359 82.4323 31.6706C82.3611 31.7035 82.2822 31.7199 82.197 31.7199C82.1251 31.7199 82.058 31.7065 81.9949 31.6799C81.9318 31.6512 81.8722 31.6205 81.8174 31.5877C81.7625 31.5549 81.7105 31.5253 81.6614 31.4987C81.6124 31.47 81.5662 31.4556 81.5236 31.4556C81.4582 31.4556 81.4074 31.4761 81.3706 31.517C81.3338 31.556 81.3151 31.6195 81.3151 31.7075H80.908C80.908 31.601 80.9226 31.5037 80.9512 31.4157C80.9816 31.3277 81.0225 31.2528 81.0739 31.1914C81.1264 31.1279 81.1889 31.0787 81.2602 31.0439C81.3338 31.0092 81.4132 30.9916 81.4991 30.9916C81.5726 30.9916 81.641 31.0061 81.704 31.0347C81.7671 31.0613 81.8267 31.091 81.8816 31.1238C81.9365 31.1566 81.9879 31.1873 82.0346 31.2159C82.0837 31.2425 82.1292 31.2559 82.1724 31.2559ZM85.1527 32.2021C85.3834 32.2021 85.5913 32.2401 85.777 32.3158C85.9645 32.3916 86.1239 32.4992 86.2542 32.6385C86.3867 32.7777 86.4889 32.9468 86.5602 33.1454C86.6314 33.3441 86.6676 33.5674 86.6676 33.8152C86.6676 34.0631 86.6314 34.2862 86.5602 34.4849C86.4889 34.6837 86.3867 34.8535 86.2542 34.995C86.1239 35.1342 85.9645 35.2417 85.777 35.3176C85.5913 35.3932 85.3834 35.4312 85.1527 35.4312C84.9202 35.4312 84.71 35.3932 84.5219 35.3176C84.3362 35.2417 84.1774 35.1342 84.0448 34.995C83.9122 34.8535 83.81 34.6837 83.7388 34.4849C83.6675 34.2862 83.6319 34.0631 83.6319 33.8152C83.6319 33.5674 83.6675 33.3441 83.7388 33.1454C83.81 32.9468 83.9122 32.7777 84.0448 32.6385C84.1774 32.4992 84.3362 32.3916 84.5219 32.3158C84.71 32.2401 84.9202 32.2021 85.1527 32.2021ZM85.1527 34.9151C85.4342 34.9151 85.6433 34.8209 85.7799 34.6324C85.9189 34.442 85.9878 34.1706 85.9878 33.8183C85.9878 33.4659 85.9189 33.1945 85.7799 33.0041C85.6433 32.8115 85.4342 32.7152 85.1527 32.7152C84.8671 32.7152 84.6545 32.8115 84.5161 33.0041C84.3771 33.1945 84.3082 33.4659 84.3082 33.8183C84.3082 34.1706 84.3771 34.442 84.5161 34.6324C84.6545 34.8209 84.8671 34.9151 85.1527 34.9151ZM91.7936 31.5601H90.4194V35.3852H89.7063V31.5601H88.3298V30.9609H91.7936V31.5601ZM93.5906 33.4649C93.5906 33.3543 93.5743 33.252 93.5416 33.1576C93.5112 33.0615 93.465 32.9784 93.4043 32.9088C93.343 32.8371 93.2665 32.7818 93.1748 32.743C93.0849 32.702 92.9809 32.6814 92.8623 32.6814C92.6235 32.6814 92.436 32.7501 92.2993 32.8873C92.1627 33.0246 92.0757 33.2171 92.0394 33.4649H93.5906ZM92.0208 33.8705C92.0289 34.0486 92.0564 34.2033 92.1037 34.3343C92.1504 34.4634 92.2129 34.5709 92.29 34.657C92.3694 34.743 92.4634 34.8076 92.5715 34.8505C92.6819 34.8915 92.8045 34.912 92.9388 34.912C93.0673 34.912 93.1789 34.8976 93.2723 34.869C93.3663 34.8383 93.4481 34.8055 93.5176 34.7707C93.5865 34.7339 93.6461 34.701 93.6946 34.6723C93.7436 34.6416 93.7886 34.6263 93.8295 34.6263C93.8826 34.6263 93.9235 34.6468 93.9521 34.6877L94.1384 34.9304C94.0613 35.0226 93.9731 35.1004 93.8756 35.1639C93.7775 35.2274 93.6735 35.2796 93.5632 35.3207C93.4528 35.3595 93.3401 35.3873 93.2238 35.4035C93.107 35.422 92.9937 35.4312 92.8839 35.4312C92.6673 35.4312 92.4664 35.3954 92.2807 35.3238C92.0973 35.25 91.9372 35.1425 91.8006 35.0011C91.6657 34.8598 91.56 34.6846 91.4823 34.4758C91.407 34.2668 91.369 34.0262 91.369 33.7537C91.369 33.5366 91.4029 33.3338 91.47 33.1454C91.5395 32.957 91.6371 32.7932 91.7638 32.6538C91.8923 32.5146 92.047 32.405 92.2287 32.325C92.4126 32.2432 92.6194 32.2021 92.8501 32.2021C93.0416 32.2021 93.2192 32.2339 93.3827 32.2974C93.5456 32.3588 93.6864 32.45 93.8049 32.5708C93.9235 32.6917 94.0152 32.8402 94.0806 33.0163C94.1478 33.1904 94.1816 33.3892 94.1816 33.6124C94.1816 33.7148 94.17 33.7834 94.1478 33.8183C94.1256 33.853 94.0847 33.8705 94.0251 33.8705H92.0208ZM97.0013 32.8657C96.9809 32.8924 96.9616 32.9128 96.9435 32.9273C96.9248 32.9416 96.8985 32.9487 96.8635 32.9487C96.829 32.9487 96.7922 32.9364 96.7537 32.9119C96.7169 32.8873 96.6719 32.8607 96.6188 32.832C96.5679 32.8012 96.5055 32.7736 96.4325 32.7491C96.3589 32.7244 96.2672 32.7122 96.1568 32.7122C96.0143 32.7122 95.8887 32.7377 95.7807 32.7889C95.6744 32.8402 95.5845 32.914 95.5109 33.0102C95.4396 33.1045 95.3859 33.2201 95.3491 33.3574C95.314 33.4925 95.2971 33.6452 95.2971 33.8152C95.2971 33.9913 95.3164 34.148 95.3549 34.2853C95.3941 34.4225 95.449 34.5382 95.5202 34.6324C95.5938 34.7265 95.6814 34.7983 95.7836 34.8476C95.8876 34.8966 96.0038 34.9213 96.1323 34.9213C96.259 34.9213 96.3618 34.9058 96.4412 34.8752C96.5212 34.8445 96.5872 34.8107 96.6404 34.7738C96.6935 34.7369 96.7385 34.703 96.7753 34.6723C96.8138 34.6416 96.8547 34.6263 96.8973 34.6263C96.9505 34.6263 96.9914 34.6468 97.02 34.6877L97.2063 34.9304C97.1309 35.0226 97.0474 35.1004 96.9557 35.1639C96.8635 35.2274 96.7671 35.2796 96.6649 35.3207C96.5627 35.3595 96.4564 35.3873 96.3466 35.4035C96.2362 35.422 96.1253 35.4312 96.0131 35.4312C95.8192 35.4312 95.6376 35.3954 95.4682 35.3238C95.3012 35.25 95.154 35.1445 95.0273 35.0072C94.9029 34.868 94.8042 34.6989 94.7306 34.5003C94.6594 34.2995 94.6237 34.0712 94.6237 33.8152C94.6237 33.5838 94.6564 33.3697 94.7219 33.173C94.7867 32.9744 94.8819 32.8034 95.0063 32.6599C95.1324 32.5165 95.2889 32.405 95.4741 32.325C95.6598 32.2432 95.8741 32.2021 96.1171 32.2021C96.3437 32.2021 96.5422 32.239 96.714 32.3127C96.8874 32.3864 97.0416 32.491 97.1759 32.6262L97.0013 32.8657ZM98.351 32.6661C98.4181 32.5964 98.4876 32.5339 98.5589 32.4787C98.6325 32.4214 98.7101 32.3722 98.7913 32.3312C98.8731 32.2903 98.9601 32.2585 99.0518 32.236C99.1435 32.2135 99.2433 32.2021 99.3514 32.2021C99.5231 32.2021 99.6732 32.2309 99.8017 32.2882C99.9319 32.3455 100.041 32.4264 100.129 32.531C100.219 32.6354 100.286 32.7613 100.331 32.9088C100.376 33.0543 100.398 33.2151 100.398 33.3911V35.3852H99.7433V33.3911C99.7433 33.1802 99.6942 33.0163 99.5961 32.8995C99.5003 32.7829 99.3537 32.7244 99.1557 32.7244C99.0086 32.7244 98.8719 32.7582 98.7458 32.8258C98.6214 32.8935 98.504 32.9856 98.3936 33.1024V35.3852H97.736V32.2513H98.1337C98.2231 32.2513 98.2803 32.2934 98.3048 32.3773L98.351 32.6661ZM102.516 32.2021C102.747 32.2021 102.955 32.2401 103.141 32.3158C103.328 32.3916 103.487 32.4992 103.618 32.6385C103.75 32.7777 103.852 32.9468 103.924 33.1454C103.996 33.3441 104.031 33.5674 104.031 33.8152C104.031 34.0631 103.996 34.2862 103.924 34.4849C103.852 34.6837 103.75 34.8535 103.618 34.995C103.487 35.1342 103.328 35.2417 103.141 35.3176C102.955 35.3932 102.747 35.4312 102.516 35.4312C102.284 35.4312 102.074 35.3932 101.886 35.3176C101.7 35.2417 101.541 35.1342 101.408 34.995C101.276 34.8535 101.174 34.6837 101.102 34.4849C101.031 34.2862 100.995 34.0631 100.995 33.8152C100.995 33.5674 101.031 33.3441 101.102 33.1454C101.174 32.9468 101.276 32.7777 101.408 32.6385C101.541 32.4992 101.7 32.3916 101.886 32.3158C102.074 32.2401 102.284 32.2021 102.516 32.2021ZM102.516 34.9151C102.798 34.9151 103.007 34.8209 103.143 34.6324C103.282 34.442 103.352 34.1706 103.352 33.8183C103.352 33.4659 103.282 33.1945 103.143 33.0041C103.007 32.8115 102.798 32.7152 102.516 32.7152C102.231 32.7152 102.019 32.8115 101.88 33.0041C101.741 33.1945 101.672 33.4659 101.672 33.8183C101.672 34.1706 101.741 34.442 101.88 34.6324C102.019 34.8209 102.231 34.9151 102.516 34.9151ZM105.333 30.8381V35.3852H104.675V30.8381H105.333ZM107.495 32.2021C107.726 32.2021 107.934 32.2401 108.119 32.3158C108.307 32.3916 108.466 32.4992 108.597 32.6385C108.73 32.7777 108.832 32.9468 108.903 33.1454C108.974 33.3441 109.01 33.5674 109.01 33.8152C109.01 34.0631 108.974 34.2862 108.903 34.4849C108.832 34.6837 108.73 34.8535 108.597 34.995C108.466 35.1342 108.307 35.2417 108.119 35.3176C107.934 35.3932 107.726 35.4312 107.495 35.4312C107.263 35.4312 107.052 35.3932 106.865 35.3176C106.679 35.2417 106.52 35.1342 106.388 34.995C106.255 34.8535 106.153 34.6837 106.081 34.4849C106.01 34.2862 105.974 34.0631 105.974 33.8152C105.974 33.5674 106.01 33.3441 106.081 33.1454C106.153 32.9468 106.255 32.7777 106.388 32.6385C106.52 32.4992 106.679 32.3916 106.865 32.3158C107.052 32.2401 107.263 32.2021 107.495 32.2021ZM107.495 34.9151C107.776 34.9151 107.986 34.8209 108.123 34.6324C108.261 34.442 108.331 34.1706 108.331 33.8183C108.331 33.4659 108.261 33.1945 108.123 33.0041C107.986 32.8115 107.776 32.7152 107.495 32.7152C107.209 32.7152 106.997 32.8115 106.858 33.0041C106.72 33.1945 106.65 33.4659 106.65 33.8183C106.65 34.1706 106.72 34.442 106.858 34.6324C106.997 34.8209 107.209 34.9151 107.495 34.9151ZM108.477 30.9118L107.74 31.7075C107.708 31.7444 107.675 31.7701 107.642 31.7843C107.612 31.7986 107.571 31.8058 107.519 31.8058H107.128L107.572 31.0623C107.6 31.0111 107.633 30.9732 107.67 30.9487C107.709 30.924 107.764 30.9118 107.838 30.9118H108.477ZM110.732 33.7905C110.936 33.7905 111.09 33.7384 111.191 33.6339C111.293 33.5294 111.344 33.3933 111.344 33.2253C111.344 33.0532 111.293 32.917 111.191 32.8167C111.09 32.7163 110.936 32.6661 110.732 32.6661C110.53 32.6661 110.377 32.7163 110.273 32.8167C110.171 32.917 110.12 33.0532 110.12 33.2253C110.12 33.3072 110.134 33.3831 110.16 33.4525C110.187 33.5222 110.225 33.5826 110.276 33.6339C110.327 33.683 110.391 33.722 110.466 33.7506C110.544 33.7772 110.632 33.7905 110.732 33.7905ZM111.647 35.5388C111.647 35.4691 111.627 35.4138 111.586 35.3728C111.547 35.3298 111.494 35.2971 111.427 35.2745C111.359 35.25 111.281 35.2325 111.191 35.2223C111.102 35.2101 111.006 35.2018 110.904 35.1977C110.804 35.1916 110.701 35.1865 110.594 35.1823C110.49 35.1763 110.389 35.166 110.292 35.1516C110.194 35.2029 110.113 35.2643 110.05 35.336C109.989 35.4077 109.958 35.4906 109.958 35.5847C109.958 35.6463 109.974 35.7036 110.004 35.7569C110.037 35.8102 110.086 35.8561 110.151 35.8951C110.218 35.9341 110.303 35.9648 110.405 35.9874C110.509 36.0098 110.633 36.0211 110.778 36.0211C111.068 36.0211 111.285 35.976 111.43 35.8859C111.575 35.7958 111.647 35.6801 111.647 35.5388ZM112.308 32.365V32.6108C112.308 32.6928 112.259 32.743 112.161 32.7613L111.849 32.8136C111.903 32.9323 111.929 33.0645 111.929 33.2099C111.929 33.3635 111.898 33.5027 111.837 33.6278C111.778 33.7527 111.695 33.8593 111.589 33.9473C111.483 34.0353 111.356 34.1029 111.21 34.15C111.063 34.1972 110.904 34.2208 110.732 34.2208C110.667 34.2208 110.603 34.2177 110.539 34.2115C110.478 34.2033 110.418 34.193 110.359 34.1808C110.3 34.2156 110.256 34.2524 110.228 34.2914C110.199 34.3303 110.184 34.3702 110.184 34.4112C110.184 34.4788 110.214 34.529 110.273 34.5617C110.333 34.5945 110.41 34.6181 110.506 34.6324C110.604 34.6468 110.715 34.6559 110.84 34.6601C110.964 34.6642 111.09 34.6713 111.219 34.6816C111.347 34.6918 111.474 34.7092 111.598 34.7339C111.723 34.7563 111.833 34.7953 111.929 34.8505C112.027 34.9037 112.105 34.9765 112.165 35.0687C112.224 35.1608 112.254 35.2807 112.254 35.4282C112.254 35.5633 112.22 35.6954 112.152 35.8245C112.085 35.9535 111.987 36.0683 111.859 36.1687C111.732 36.269 111.577 36.3488 111.393 36.4082C111.21 36.4696 111.001 36.5005 110.766 36.5005C110.534 36.5005 110.33 36.4779 110.157 36.4327C109.986 36.3878 109.842 36.3264 109.725 36.2484C109.611 36.1727 109.526 36.0847 109.468 35.9843C109.413 35.8839 109.386 35.7795 109.386 35.6708C109.386 35.5234 109.432 35.3975 109.523 35.2929C109.617 35.1884 109.744 35.1066 109.903 35.0471C109.817 35.0062 109.748 34.9499 109.695 34.8782C109.644 34.8065 109.618 34.7122 109.618 34.5955C109.618 34.5034 109.652 34.4071 109.719 34.3067C109.787 34.2063 109.888 34.1214 110.023 34.0517C109.867 33.9656 109.745 33.8521 109.655 33.7106C109.565 33.5674 109.52 33.4004 109.52 33.2099C109.52 33.0543 109.55 32.914 109.609 32.7889C109.67 32.664 109.755 32.5575 109.863 32.4695C109.971 32.3814 110.099 32.3138 110.246 32.2668C110.395 32.2196 110.557 32.1961 110.732 32.1961C111.001 32.1961 111.236 32.2523 111.436 32.365H112.308ZM113.514 32.2513V35.3852H112.856V32.2513H113.514ZM113.624 31.3051C113.624 31.3645 113.611 31.4207 113.587 31.474C113.565 31.5272 113.533 31.5744 113.492 31.6153C113.451 31.6543 113.403 31.686 113.349 31.7106C113.295 31.7332 113.238 31.7444 113.177 31.7444C113.118 31.7444 113.062 31.7332 113.009 31.7106C112.958 31.686 112.913 31.6543 112.874 31.6153C112.835 31.5744 112.804 31.5272 112.779 31.474C112.757 31.4207 112.745 31.3645 112.745 31.3051C112.745 31.2437 112.757 31.1862 112.779 31.1331C112.804 31.0798 112.835 31.0337 112.874 30.9947C112.913 30.9538 112.958 30.9221 113.009 30.8995C113.062 30.875 113.118 30.8626 113.177 30.8626C113.238 30.8626 113.295 30.875 113.349 30.8995C113.403 30.9221 113.451 30.9538 113.492 30.9947C113.533 31.0337 113.565 31.0798 113.587 31.1331C113.611 31.1862 113.624 31.2437 113.624 31.3051ZM116.547 32.8657C116.526 32.8924 116.507 32.9128 116.488 32.9273C116.47 32.9416 116.444 32.9487 116.409 32.9487C116.374 32.9487 116.338 32.9364 116.299 32.9119C116.262 32.8873 116.217 32.8607 116.164 32.832C116.113 32.8012 116.051 32.7736 115.977 32.7491C115.904 32.7244 115.813 32.7122 115.702 32.7122C115.559 32.7122 115.434 32.7377 115.326 32.7889C115.22 32.8402 115.13 32.914 115.056 33.0102C114.985 33.1045 114.931 33.2201 114.894 33.3574C114.859 33.4925 114.842 33.6452 114.842 33.8152C114.842 33.9913 114.862 34.148 114.9 34.2853C114.939 34.4225 114.994 34.5382 115.066 34.6324C115.139 34.7265 115.227 34.7983 115.329 34.8476C115.433 34.8966 115.549 34.9213 115.678 34.9213C115.804 34.9213 115.907 34.9058 115.987 34.8752C116.066 34.8445 116.133 34.8107 116.186 34.7738C116.239 34.7369 116.284 34.703 116.32 34.6723C116.359 34.6416 116.4 34.6263 116.443 34.6263C116.496 34.6263 116.537 34.6468 116.565 34.6877L116.752 34.9304C116.676 35.0226 116.593 35.1004 116.501 35.1639C116.409 35.2274 116.312 35.2796 116.21 35.3207C116.108 35.3595 116.002 35.3873 115.892 35.4035C115.782 35.422 115.671 35.4312 115.559 35.4312C115.365 35.4312 115.183 35.3954 115.014 35.3238C114.847 35.25 114.699 35.1445 114.573 35.0072C114.448 34.868 114.35 34.6989 114.276 34.5003C114.205 34.2995 114.169 34.0712 114.169 33.8152C114.169 33.5838 114.202 33.3697 114.267 33.173C114.332 32.9744 114.427 32.8034 114.552 32.6599C114.678 32.5165 114.834 32.405 115.019 32.325C115.205 32.2432 115.42 32.2021 115.662 32.2021C115.889 32.2021 116.088 32.239 116.259 32.3127C116.433 32.3864 116.586 32.491 116.721 32.6262L116.547 32.8657ZM118.949 34.0148C118.715 34.0231 118.517 34.0424 118.355 34.0733C118.194 34.1019 118.063 34.1398 117.964 34.1868C117.864 34.232 117.791 34.2862 117.746 34.3497C117.704 34.4133 117.682 34.4829 117.682 34.5586C117.682 34.6323 117.693 34.6959 117.716 34.7491C117.74 34.8003 117.773 34.8433 117.813 34.8782C117.857 34.9109 117.905 34.9356 117.961 34.952C118.018 34.9663 118.08 34.9734 118.147 34.9734C118.319 34.9734 118.465 34.9417 118.588 34.8782C118.712 34.8126 118.833 34.7185 118.949 34.5955V34.0148ZM117.205 32.6876C117.558 32.3579 117.978 32.193 118.465 32.193C118.645 32.193 118.804 32.2227 118.943 32.282C119.084 32.3393 119.201 32.4214 119.295 32.5279C119.391 32.6343 119.463 32.7613 119.512 32.9088C119.563 33.0543 119.588 33.2161 119.588 33.3943V35.3852H119.295C119.231 35.3852 119.184 35.3759 119.151 35.3575C119.118 35.3371 119.091 35.2971 119.068 35.2377L119.004 34.9826C118.924 35.0543 118.846 35.1188 118.768 35.1763C118.691 35.2315 118.61 35.2786 118.527 35.3176C118.445 35.3564 118.356 35.3852 118.26 35.4035C118.167 35.4241 118.062 35.4343 117.948 35.4343C117.822 35.4343 117.704 35.4168 117.593 35.3821C117.485 35.3473 117.391 35.295 117.312 35.2253C117.232 35.1537 117.169 35.0657 117.122 34.9611C117.077 34.8566 117.055 34.7339 117.055 34.5924C117.055 34.4716 117.086 34.3538 117.149 34.2391C117.215 34.1245 117.321 34.022 117.468 33.9318C117.617 33.8397 117.812 33.7639 118.052 33.7046C118.295 33.6452 118.594 33.6114 118.949 33.6031V33.3943C118.949 33.169 118.901 33.001 118.805 32.8904C118.709 32.7798 118.569 32.7244 118.383 32.7244C118.256 32.7244 118.15 32.7409 118.065 32.7736C117.979 32.8044 117.905 32.8381 117.841 32.875C117.778 32.9119 117.722 32.9468 117.673 32.9794C117.624 33.0102 117.572 33.0256 117.517 33.0256C117.472 33.0256 117.433 33.0143 117.401 32.9917C117.37 32.9672 117.344 32.9375 117.324 32.9026L117.205 32.6876Z" fill="white"/>
</g>
<defs>
<clipPath id="clip0_5_3807">
<rect width="163" height="36" fill="white" transform="translate(0 0.5)"/>
</clipPath>
</defs>
</svg>
