<svg width="57" height="40" viewBox="0 0 57 40" fill="none" xmlns="http://www.w3.org/2000/svg">
<path d="M5.99736 29.9992V31.0371C5.70653 30.6361 5.3371 30.3295 4.88907 30.1172C4.43317 29.9128 3.9144 29.8105 3.3406 29.8105C2.31877 29.8105 1.50917 30.1172 0.903934 30.7226C0.298696 31.3358 0 32.2714 0 33.5294V36.2654C0 37.5234 0.298696 38.459 0.903934 39.0722C1.50917 39.6933 2.31877 40 3.3406 40C3.9144 40 4.43317 39.8978 4.88907 39.6855C5.3371 39.4811 5.70653 39.1744 5.99736 38.7735V39.8113H9.16504V29.9992H5.99736ZM5.99736 36.2025C5.99736 36.8236 5.88733 37.2796 5.65938 37.5863C5.43143 37.885 5.07771 38.0344 4.58252 38.0344C4.08732 38.0344 3.7179 37.8929 3.49781 37.6099C3.27773 37.3268 3.16767 36.8787 3.16767 36.2654V33.5844C3.16767 32.9633 3.28558 32.5073 3.50567 32.2164C3.73362 31.9176 4.09518 31.7682 4.58252 31.7682C5.06985 31.7682 5.43143 31.9176 5.65938 32.2164C5.88733 32.5073 5.99736 32.9633 5.99736 33.5844V36.2025Z" fill="white"/>
<path d="M11.0356 26.6028V39.8113H14.2269V26.6028H11.0356Z" fill="white"/>
<path d="M21.8042 29.9993V36.6035C21.8042 36.9416 21.757 37.2168 21.647 37.4291C21.5369 37.6492 21.3876 37.7986 21.1832 37.8929C20.9867 37.9873 20.7509 38.0344 20.4837 38.0344C20.0749 38.0344 19.7527 37.9244 19.5247 37.7042C19.2968 37.4841 19.1867 37.1224 19.1867 36.6193V29.9993H16.019V36.9023C16.019 37.5549 16.1212 38.1131 16.3334 38.5769C16.5535 39.0329 16.8837 39.3867 17.3396 39.6305C17.7876 39.8742 18.3693 40 19.0688 40C19.7684 40 20.3422 39.8821 20.8059 39.6383C21.2697 39.4025 21.6391 39.0487 21.8985 38.5848V39.8113H24.9797V29.9993H21.8042Z" fill="white"/>
<path d="M39.8596 30.581C39.3959 30.07 38.6492 29.8105 37.6195 29.8105C36.9592 29.8105 36.4169 29.9363 35.9767 30.1879C35.5365 30.4395 35.2064 30.8091 34.9942 31.2965C34.8055 30.8091 34.499 30.4395 34.0824 30.1879C33.6579 29.9363 33.0998 29.8105 32.4081 29.8105C31.8186 29.8105 31.3156 29.9206 30.8911 30.1486C30.4667 30.3766 30.1365 30.699 29.9007 31.1314V29.9992H26.7095V39.8113H29.9007V33.1127C29.9007 32.7982 29.9479 32.5387 30.0422 32.35C30.1365 32.1535 30.2623 32.0041 30.4195 31.9098C30.5767 31.8154 30.7653 31.7682 30.9776 31.7682C31.3313 31.7682 31.5985 31.8783 31.7793 32.0906C31.9601 32.3029 32.0544 32.6488 32.0544 33.1127V39.8113H35.2221V33.1127C35.2221 32.7982 35.2693 32.5387 35.3636 32.35C35.4579 32.1535 35.5837 32.0041 35.7409 31.9098C35.8981 31.8154 36.0789 31.7682 36.299 31.7682C36.6448 31.7682 36.9121 31.8783 37.1007 32.0906C37.2815 32.3029 37.368 32.6488 37.368 33.1127V39.8113H40.5592V32.7746C40.5592 31.8311 40.3234 31.1 39.8596 30.581Z" fill="white"/>
<path d="M43.9232 29.9993C43.3494 29.9993 42.8071 29.8578 42.3354 29.6062V39.8114H45.5188V29.6062C45.0394 29.8578 44.497 29.9993 43.9232 29.9993Z" fill="white"/>
<path d="M53.1194 29.9992V31.0371C52.8365 30.6361 52.4592 30.3295 52.0111 30.1172C51.5552 29.9128 51.0443 29.8105 50.4627 29.8105C49.4408 29.8105 48.6312 30.1172 48.026 30.7226C47.4286 31.3358 47.1221 32.2714 47.1221 33.5294V36.2654C47.1221 37.5234 47.4286 38.459 48.026 39.0722C48.6312 39.6933 49.4408 40 50.4627 40C51.0443 40 51.5552 39.8978 52.0111 39.6855C52.4592 39.4811 52.8365 39.1744 53.1194 38.7735V39.8113H56.295V29.9992H53.1194ZM53.1194 36.2025C53.1194 36.8236 53.0094 37.2796 52.7814 37.5863C52.5535 37.885 52.1998 38.0344 51.7046 38.0344C51.2094 38.0344 50.8399 37.8929 50.6199 37.6099C50.3998 37.3268 50.2897 36.8787 50.2897 36.2654V33.5844C50.2897 32.9633 50.4076 32.5073 50.6356 32.2164C50.8557 31.9176 51.2172 31.7682 51.7046 31.7682C52.1919 31.7682 52.5535 31.9176 52.7814 32.2164C53.0094 32.5073 53.1194 32.9633 53.1194 33.5844V36.2025Z" fill="white"/>
<path d="M43.9228 28.1989C44.804 28.1989 45.5184 27.4843 45.5184 26.6029C45.5184 25.7214 44.804 25.0068 43.9228 25.0068C43.0415 25.0068 42.3271 25.7214 42.3271 26.6029C42.3271 27.4843 43.0415 28.1989 43.9228 28.1989Z" fill="white"/>
<path d="M56.2323 25.392L47.303 26.2726C47.2795 26.0446 47.2323 25.8323 47.1694 25.62L50.9345 24.4721L55.8943 22.9705C56.0436 23.7645 56.1537 24.5743 56.2323 25.3842V25.392Z" fill="white"/>
<path d="M55.3203 20.5096L50.3841 23.1435L46.9177 24.9989C46.8234 24.8024 46.6976 24.6137 46.5562 24.4407L49.5902 21.9484L54.4635 17.9465C54.7937 18.7721 55.0766 19.629 55.3203 20.5096Z" fill="white"/>
<path d="M40.6692 25.6201C40.6063 25.8324 40.5591 26.0525 40.5434 26.2727L36.6368 25.8874L29.3583 25.172L22.0718 24.4486L14.7854 23.7253L7.49896 23.0099L0.67627 22.3416C1.26579 19.519 2.28762 16.838 3.67888 14.385L8.89022 15.9653L15.9094 18.096L22.9129 20.2188L29.9242 22.3494L36.9277 24.4722L40.6927 25.6201H40.6692Z" fill="white"/>
<path d="M53.2447 15.2418L46.0761 23.9767C45.9032 23.8352 45.7146 23.7094 45.5181 23.6072L47.3731 20.1478L50.8237 13.693L51.5311 12.3643C52.16 13.2841 52.7259 14.2433 53.2447 15.2418Z" fill="white"/>
<path d="M41.2977 24.4408C41.1562 24.6137 41.0226 24.8024 40.9282 24.999L37.4697 23.1514L24.5475 16.2405L18.0943 12.789L11.6331 9.3296L8.76416 7.79647C10.6978 5.94885 12.9065 4.36069 15.3196 3.1106L15.6104 3.35433L21.2698 8.00089L26.9292 12.6475L32.5885 17.2862L41.282 24.4251L41.2977 24.4408Z" fill="white"/>
<path d="M42.3197 23.6073C42.1232 23.7017 41.9345 23.8353 41.7616 23.969L39.2778 20.9342L34.6324 15.2812L29.9948 9.62046L25.3416 3.9518L22.5669 0.571051C23.5101 0.374496 24.4769 0.232977 25.4595 0.13863C26.8979 -0.00288949 28.3285 -0.0343392 29.7197 0.0364207L30.1049 0.775469L33.5634 7.23821L37.014 13.6931L40.4647 20.1558L42.3197 23.6231V23.6073Z" fill="white"/>
<path d="M41.6356 3.39366L43.585 23.2222C43.357 23.2457 43.1448 23.2929 42.9325 23.3558L41.785 19.5898L39.6627 12.5846L37.5326 5.57936L36.1885 1.13721C38.0828 1.70329 39.9064 2.45806 41.6199 3.39366H41.6356Z" fill="white"/>
<path d="M49.1577 9.3375L48.1752 12.5767L46.0529 19.5898L44.9053 23.3558C44.6931 23.2929 44.473 23.2379 44.2529 23.23L44.6381 19.3146L45.3612 12.0342L45.9271 6.27124C47.0826 7.19898 48.1673 8.22107 49.1577 9.34536V9.3375Z" fill="white"/>
</svg>
